<svg width="304" height="244" viewBox="0 0 304 244" fill="none" xmlns="http://www.w3.org/2000/svg">
<path d="M29.8302 7.24985C32.719 6.48598 35.8648 7.22902 38.3995 8.80537C40.9341 10.3887 42.9063 12.7358 44.4757 15.2774C47.5173 20.187 48.545 26.7563 48.6284 32.5339C42.2188 32.2145 36.7953 27.1243 34.2051 24.3675C30.108 20.0134 25.3512 9.65951 29.8372 7.24985" fill="#F5F5F5"/>
<path d="M58.9058 36.4921C56.2879 34.4227 55.149 30.7909 55.7254 27.5132C56.3087 24.2286 58.4545 21.3397 61.2252 19.4787C62.503 18.6176 64.0863 17.944 65.5654 18.3884C66.9473 18.8051 67.8917 20.1592 68.1626 21.5758C68.4264 22.9925 68.1139 24.4577 67.6279 25.8188C65.9682 30.4715 63.503 34.6727 58.9058 36.4921Z" fill="#F5F5F5"/>
<path d="M62.628 50.4571C62.5586 50.4918 61.8225 49.2349 60.8086 47.096C60.3017 46.0266 59.8434 44.6586 59.5309 43.1239C59.2253 41.5962 58.8642 39.9157 58.7392 38.0963C58.4545 34.4644 59.1767 31.1381 60.1836 28.9784C60.6767 27.8882 61.2183 27.0827 61.6072 26.5479C62.0239 26.0271 62.2739 25.7632 62.3086 25.791C62.4058 25.8605 61.4753 26.9993 60.6072 29.159C59.7392 31.3048 59.1142 34.513 59.385 38.0477C59.5031 39.8046 59.8503 41.4851 60.1142 43.0059C60.392 44.5267 60.7878 45.8391 61.2322 46.9155C62.1211 49.0751 62.7183 50.4154 62.628 50.4501V50.4571Z" fill="#E0E0E0"/>
<path d="M34.1496 14.8191C34.1496 14.8191 34.6566 15.2843 35.4899 16.2079C36.3232 17.1315 37.5037 18.4787 38.9551 20.1662C41.8508 23.5341 45.8021 28.2285 50.0381 33.513C54.2741 38.8046 57.9754 43.7072 60.5795 47.3044C61.8781 49.1029 62.9197 50.5751 63.6141 51.6029C64.3086 52.6306 64.6766 53.2139 64.6419 53.2348C64.6072 53.2625 64.1697 52.7278 63.4058 51.7487C62.5795 50.6723 61.5031 49.2696 60.2115 47.5752C57.5171 44.0475 53.7672 39.2004 49.5312 33.9158C45.2952 28.7076 41.4689 23.9925 38.6009 20.4578C37.2607 18.7981 36.1496 17.4232 35.2954 16.3676C34.5246 15.3955 34.1149 14.8399 34.1496 14.8121V14.8191Z" fill="#E0E0E0"/>
<path d="M54.538 42.742C48.7673 38.7213 40.9967 37.7491 34.4135 40.2212C32.7399 40.8531 30.9136 42.0198 30.858 43.8114C30.8025 45.603 32.5663 46.8877 34.226 47.5752C41.1147 50.4432 49.6909 48.596 54.7949 43.1586" fill="#F5F5F5"/>
<path d="M38.8994 42.9434C38.8925 42.9017 39.2327 42.7837 39.8647 42.617C40.4896 42.4364 41.4132 42.242 42.566 42.0267C44.8506 41.6587 48.1353 41.2281 51.6907 41.9503C53.4615 42.3184 55.0795 42.9642 56.4267 43.7628C57.7878 44.5544 58.8294 45.5197 59.6489 46.353C60.4405 47.221 61.0308 47.971 61.3641 48.5335C61.7183 49.0821 61.8919 49.3946 61.8571 49.4224C61.753 49.4988 60.9613 48.2835 59.3225 46.6724C58.4822 45.8947 57.4406 45.0058 56.1212 44.2767C54.8087 43.5475 53.2532 42.9364 51.5519 42.5823C48.1283 41.8809 44.9062 42.2212 42.6215 42.4781C40.3299 42.7767 38.9133 43.0475 38.8925 42.9503L38.8994 42.9434Z" fill="#E0E0E0"/>
<path d="M63.9405 183.711C84.6483 173.655 92.7245 150.163 95.4397 128.323C95.8911 124.677 96.898 120.921 95.6827 117.462C94.4605 114.004 90.787 111.192 87.2941 112.205C84.3983 113.046 82.7247 115.99 80.8081 118.337C78.2526 121.462 74.8152 123.844 71.0097 125.108C68.5098 125.941 65.5377 126.219 63.4544 124.594C60.6003 122.372 60.9197 117.99 61.5169 114.386C62.628 107.671 63.7391 100.956 64.8502 94.2406C65.4474 90.6366 66.0446 86.9561 65.4682 83.359C64.8918 79.7549 62.9197 76.1855 59.642 74.6786C56.3643 73.1717 51.8089 74.4773 50.5172 77.8869C49.9825 79.3105 50.0381 80.8799 49.6978 82.359C49.3575 83.8381 48.3992 85.3867 46.9131 85.5742C45.4062 85.7686 44.1285 84.5187 43.2188 83.2895C40.073 79.0535 38.2953 73.9634 36.6773 68.9218C35.0593 63.8803 33.5246 58.7415 30.7816 54.2347C28.0386 49.7279 23.8651 45.8322 18.7472 44.7211C13.6293 43.61 7.61555 45.9155 5.50449 50.7834C3.38649 55.6583 5.53227 61.2901 8.10165 65.9219C11.921 72.7898 16.7264 79.0882 22.3166 84.5673C23.3235 85.5534 24.4207 86.6228 24.6429 88.0255C25.0457 90.5532 22.386 92.581 19.8861 92.9907C17.0528 93.4559 14.1848 92.7129 11.3168 92.6018C8.44886 92.4837 5.20589 93.2407 3.71982 95.7267C1.65737 99.178 4.12258 103.532 6.75446 106.546C12.0182 112.58 18.3236 117.684 25.2887 121.573C27.7886 122.969 30.4413 124.261 32.2885 126.469C34.1288 128.677 34.9065 132.122 33.2121 134.455C31.5108 136.795 28.0664 137.08 25.372 136.122C22.6777 135.163 20.4277 133.26 17.9417 131.837C13.2821 129.177 6.83085 128.504 2.96984 132.281C0.435178 134.767 -0.370357 138.656 0.150463 142.177C0.671283 145.698 2.3518 148.934 4.19897 151.961C10.6571 162.544 19.6361 171.669 30.4969 177.482C41.3577 183.301 51.8366 186.072 63.9266 183.711" fill="#EBEBEB"/>
<path d="M61.0031 184.87C61.5864 176.141 61.9753 180.669 60.4962 169.204C59.0448 157.732 56.406 145.288 53.2047 132.372C52.3922 129.142 51.5867 125.955 50.795 122.816C49.9964 119.684 49.2048 116.573 48.2465 113.58C46.3507 107.587 44.073 101.963 41.7397 96.6989C39.4134 91.4282 37.0107 86.5116 34.726 81.9353C32.4344 77.3591 30.2192 73.13 28.0387 69.3662C23.6916 61.8178 19.4764 56.1513 16.4209 52.3806C14.9001 50.4917 13.671 49.0612 12.8238 48.1029C12.4141 47.6446 12.0946 47.2904 11.8516 47.0196C11.6294 46.7765 11.5113 46.6585 11.5044 46.6654C11.4974 46.6724 11.5947 46.8112 11.803 47.0612C12.0321 47.339 12.3377 47.714 12.7196 48.1862C13.5321 49.1723 14.7265 50.6237 16.2195 52.5403C19.2056 56.3527 23.3513 62.04 27.629 69.6023C29.7817 73.3731 31.9691 77.6021 34.233 82.1784C36.4898 86.7686 38.8717 91.6851 41.1772 96.9489C43.4897 102.213 45.7465 107.817 47.6215 113.775C48.5729 116.754 49.3506 119.837 50.1492 122.976C50.9409 126.115 51.7395 129.302 52.5519 132.531C55.7532 145.441 58.399 157.85 59.8781 169.28C61.3781 180.704 61.0378 176.134 60.5239 184.835" fill="#E0E0E0"/>
<path d="M48.0728 113.518C48.1145 113.532 48.3228 113.004 48.67 112.039C49.0172 111.074 49.4756 109.657 50.0172 107.9C51.1005 104.393 52.4269 99.4905 53.8713 94.0879C55.3157 88.6783 56.7115 83.8173 57.8434 80.3313C58.4059 78.5883 58.8711 77.1786 59.2114 76.2134C59.5447 75.2412 59.7045 74.6995 59.6628 74.6787C59.6211 74.6648 59.3781 75.1717 58.9684 76.1161C58.5587 77.0606 58.017 78.4425 57.399 80.1716C56.149 83.6298 54.6768 88.4908 53.2324 93.9073C51.8227 99.2475 50.545 104.074 49.5728 107.761C49.1214 109.428 48.7395 110.824 48.4339 111.955C48.17 112.949 48.045 113.504 48.0867 113.518H48.0728Z" fill="#E0E0E0"/>
<path d="M3.08091 97.4767C3.07396 97.5253 3.71978 97.7059 4.89336 97.9906C6.06694 98.2892 7.76828 98.7059 9.84462 99.2892C14.0181 100.421 19.7263 102.192 25.9414 104.421C32.1565 106.657 37.6911 108.928 41.6494 110.678C43.6354 111.539 45.2257 112.282 46.3228 112.789C47.42 113.303 48.0381 113.56 48.0589 113.518C48.0797 113.476 47.5034 113.136 46.434 112.546C45.3645 111.969 43.809 111.157 41.8368 110.233C37.9203 108.365 32.3926 106.018 26.1636 103.775C19.9277 101.546 14.1778 99.8378 9.95573 98.8239C7.85162 98.2961 6.12944 97.9489 4.93502 97.7337C3.74061 97.5253 3.07396 97.4281 3.06702 97.4767H3.08091Z" fill="#E0E0E0"/>
<path d="M60.0655 168.26C60.0655 168.26 60.2252 168.093 60.4752 167.746C60.76 167.329 61.1141 166.815 61.5377 166.197C62.4544 164.843 63.7252 162.857 65.2668 160.378C68.35 155.42 72.3916 148.441 76.7457 140.684C81.1067 132.92 85.0788 125.913 88.0509 120.9C89.5023 118.462 90.7036 116.462 91.5925 114.969C91.9744 114.323 92.2869 113.789 92.5439 113.351C92.7522 112.976 92.8564 112.775 92.8355 112.761C92.8147 112.747 92.6758 112.928 92.4258 113.275C92.1411 113.692 91.7869 114.205 91.3633 114.823C90.4467 116.178 89.1759 118.164 87.6343 120.643C84.551 125.601 80.5094 132.58 76.1484 140.344C71.7874 148.107 67.8223 155.114 64.8432 160.128C63.3849 162.565 62.1905 164.565 61.3016 166.051C60.9197 166.697 60.6072 167.232 60.3502 167.669C60.1419 168.044 60.0378 168.246 60.0586 168.26H60.0655Z" fill="#E0E0E0"/>
<path d="M1.61572 138.594C1.61572 138.594 1.80322 138.733 2.18515 138.941C2.64347 139.177 3.19902 139.469 3.87955 139.823C5.44896 140.621 7.56001 141.698 10.1363 143.01C15.4209 145.705 22.6707 149.51 30.6844 153.718C38.6981 157.933 45.9965 161.676 51.3367 164.26C54.0033 165.551 56.1768 166.579 57.6907 167.253C58.392 167.558 58.9684 167.815 59.4406 168.023C59.8434 168.19 60.0587 168.273 60.0725 168.246C60.0795 168.225 59.8851 168.107 59.5031 167.898C59.0448 167.662 58.4893 167.371 57.8087 167.017C56.2393 166.218 54.1283 165.142 51.5519 163.829C46.2674 161.135 39.0106 157.329 31.0039 153.114C22.9971 148.899 15.6987 145.163 10.3586 142.573C7.68501 141.281 5.5184 140.253 4.00455 139.58C3.30318 139.274 2.72681 139.017 2.2546 138.809C1.85183 138.642 1.63656 138.559 1.62267 138.58L1.61572 138.594Z" fill="#E0E0E0"/>
<path d="M297.15 242.98C297.15 243.077 231.408 243.16 150.334 243.16C69.2598 243.16 3.50458 243.077 3.50458 242.98C3.50458 242.883 69.2321 242.799 150.334 242.799C231.436 242.799 297.15 242.883 297.15 242.98Z" fill="#263238"/>
<path d="M19.6361 127.969C19.6361 127.969 24.4277 124.733 30.4136 136.212C36.3996 147.691 38.6912 154.322 38.6912 154.322C38.6912 154.322 40.2676 156.725 41.9133 155.128C43.5591 153.531 45.7882 149.031 48.6215 149.809C51.5589 150.621 52.552 153.878 52.0381 158.677C51.5242 163.482 50.7881 174.051 50.7256 175.002C50.6631 175.94 51.2117 177.315 52.5103 176.412C53.8019 175.502 61.2253 167.086 65.01 170.843C68.7946 174.6 65.1697 187.752 64.7947 189.197C64.4267 190.641 64.7114 191.252 65.3989 191.606C66.0863 191.953 68.3154 188.891 70.5237 186.586C72.732 184.28 75.6972 181.988 77.6972 184.343C79.6971 186.697 80.4262 196.53 71.2112 212.599L66.4544 219.765L57.8227 219.369C39.4065 217.39 31.8719 211.029 31.1428 208.029C30.4136 205.03 34.0108 203.974 37.1704 203.536C40.337 203.106 44.1216 203.099 44.2466 202.335C44.3647 201.571 44.0383 200.981 42.6564 200.432C41.2675 199.884 28.497 195.099 27.6776 189.829C26.8582 184.558 38.0315 183.495 39.5245 182.981C41.0175 182.468 40.2259 181.211 39.4342 180.711C38.6218 180.204 29.6359 174.593 25.4485 172.19C21.2611 169.787 19.2056 167.065 20.275 164.218C21.3028 161.468 26.261 162.308 28.5179 161.913C30.7747 161.517 29.7539 158.829 29.7539 158.829C29.7539 158.829 25.7332 153.079 19.9556 141.496C14.1779 129.913 19.7542 127.906 19.7542 127.906" fill="#343674"/>
<path d="M25.018 138.24C25.018 138.24 25.0666 138.309 25.136 138.441C25.2194 138.594 25.3235 138.795 25.4624 139.052C25.7471 139.615 26.1568 140.406 26.6776 141.42C27.7332 143.503 29.247 146.482 31.115 150.156C34.8997 157.531 40.1148 167.697 45.8785 178.919C51.6701 190.141 56.8644 200.328 60.5587 207.731C62.3851 211.425 63.8711 214.425 64.9058 216.515C65.4058 217.543 65.7947 218.349 66.0655 218.911C66.1905 219.175 66.2877 219.383 66.3572 219.536C66.4197 219.675 66.4544 219.751 66.4475 219.758C66.4475 219.758 66.3988 219.689 66.3294 219.557C66.2461 219.404 66.1419 219.203 66.003 218.946C65.7183 218.383 65.3086 217.592 64.7878 216.578C63.7323 214.495 62.2184 211.515 60.3504 207.842C56.6005 200.467 51.3715 190.301 45.5869 179.072C39.8023 167.85 34.608 157.67 30.9067 150.26C29.0804 146.566 27.5943 143.566 26.5596 141.476C26.0596 140.448 25.6707 139.642 25.3999 139.08C25.2749 138.816 25.1777 138.608 25.1082 138.455C25.0457 138.316 25.011 138.24 25.018 138.233V138.24Z" fill="#FFF7E9"/>
<path d="M45.7535 156.232C45.8021 156.246 45.6007 157.107 45.2813 158.496C44.941 159.975 44.5104 161.857 44.0382 163.933C43.5591 166.058 43.1077 167.982 42.7397 169.364C42.5522 170.051 42.3924 170.614 42.2674 170.989C42.1424 171.371 42.0591 171.579 42.0383 171.572C41.9897 171.558 42.198 170.704 42.5105 169.308C42.8369 167.829 43.2535 165.94 43.7188 163.864C44.1979 161.739 44.6771 159.822 45.059 158.44C45.2535 157.753 45.4132 157.197 45.5382 156.815C45.6632 156.434 45.7396 156.225 45.7604 156.232H45.7535Z" fill="#FFF7E9"/>
<path d="M41.2466 171.732C41.2188 171.822 37.2745 170.801 32.4343 169.461C27.5872 168.121 23.6846 166.954 23.7054 166.871C23.7332 166.78 27.6775 167.801 32.5177 169.141C37.3578 170.482 41.2675 171.648 41.2397 171.732H41.2466Z" fill="#FFF7E9"/>
<path d="M52.3852 191.051C52.3852 191.051 52.163 191.106 51.7533 191.141C51.3436 191.183 50.7602 191.217 50.0311 191.259C48.5728 191.328 46.552 191.377 44.3229 191.315C42.0938 191.252 40.08 191.092 38.6286 190.94C37.8995 190.863 37.3161 190.787 36.9134 190.724C36.5106 190.662 36.2884 190.62 36.2884 190.592C36.2884 190.544 37.1911 190.606 38.6494 190.703C40.1008 190.801 42.1146 190.919 44.3299 190.981C46.552 191.044 48.5589 191.037 50.0172 191.023C51.4755 191.009 52.3783 191.002 52.3783 191.051H52.3852Z" fill="#FFF7E9"/>
<path d="M59.5517 177.933C59.5933 177.954 59.2184 178.704 58.5864 179.891C57.9545 181.079 57.0587 182.711 56.0448 184.502C55.0379 186.294 54.1074 187.905 53.4199 189.065C52.7324 190.224 52.288 190.933 52.2463 190.905C52.2046 190.877 52.5796 190.134 53.2116 188.947C53.8435 187.759 54.7393 186.127 55.7532 184.336C56.7601 182.544 57.6906 180.933 58.3781 179.773C59.0656 178.613 59.51 177.905 59.5517 177.933Z" fill="#FFF7E9"/>
<path d="M71.5514 193.738C71.5514 193.738 71.4542 193.995 71.232 194.419C70.9681 194.905 70.6417 195.509 70.2598 196.217C69.4265 197.731 68.2529 199.807 66.9404 202.092C65.6279 204.377 64.4196 206.432 63.5308 207.918C63.1072 208.606 62.753 209.189 62.4683 209.661C62.2114 210.071 62.0586 210.293 62.0378 210.279C62.0169 210.265 62.135 210.022 62.3572 209.599C62.6211 209.113 62.9475 208.509 63.3294 207.8C64.1627 206.286 65.3363 204.21 66.6557 201.925C67.9682 199.641 69.1765 197.585 70.0653 196.099C70.4889 195.412 70.8431 194.828 71.1278 194.356C71.3847 193.946 71.5375 193.724 71.5583 193.738H71.5514Z" fill="#FFF7E9"/>
<path d="M62.1488 209.821C62.1488 209.821 61.8641 209.87 61.3433 209.89C60.8225 209.911 60.0794 209.925 59.1489 209.932C57.2948 209.939 54.7393 209.904 51.9199 209.745C49.1006 209.592 46.552 209.349 44.7118 209.133C43.7951 209.029 43.0521 208.925 42.5382 208.849C42.0244 208.772 41.7466 208.717 41.7466 208.696C41.7466 208.675 42.0382 208.682 42.5521 208.724C43.1354 208.772 43.8646 208.835 44.7326 208.904C46.5728 209.064 49.1214 209.265 51.9338 209.418C54.7462 209.578 57.3017 209.654 59.1489 209.703C60.0169 209.731 60.753 209.745 61.3364 209.765C61.8502 209.786 62.1419 209.807 62.1419 209.828L62.1488 209.821Z" fill="#FFF7E9"/>
<path d="M287.956 124.15L264.713 146.774L243.297 187.648L219.207 233.862L189.618 219.994L157.633 203.62L178.09 164.538L190.805 120.775C181.819 126.733 165.146 134.851 145.181 130.622C123.557 126.039 133.939 44.4781 133.939 44.4781L157.702 43.867L160.07 101.372L186.937 89.5117L186.979 89.6089C188.597 88.8867 190.007 88.2478 190.764 87.8381C205.617 79.7341 215.367 78.755 231.304 84.4424L254.297 92.081C260.206 94.8657 281.99 105.595 287.956 124.164" fill="#FFD37D"/>
<path d="M206.61 82.727C206.61 82.727 206.069 83.0326 205.166 83.6784C204.263 84.3173 203.041 85.3797 201.84 86.9561C200.631 88.5255 199.479 90.6018 198.555 93.0601C197.618 95.5114 196.895 98.31 196.104 101.247C194.513 107.094 193.076 112.386 192.02 116.268C191.493 118.15 191.055 119.691 190.743 120.809C190.59 121.316 190.472 121.719 190.375 122.039C190.284 122.316 190.236 122.462 190.222 122.462C190.208 122.462 190.236 122.309 190.305 122.018C190.382 121.698 190.479 121.282 190.604 120.768C190.889 119.643 191.284 118.094 191.77 116.198C192.798 112.31 194.201 107.011 195.756 101.15C196.541 98.2197 197.277 95.4073 198.243 92.9351C199.187 90.4629 200.381 88.3658 201.631 86.7964C202.881 85.22 204.145 84.1714 205.083 83.5603C205.548 83.2478 205.93 83.0395 206.194 82.9076C206.458 82.7756 206.596 82.7131 206.603 82.727H206.61Z" fill="#263238"/>
<path d="M219.117 81.4424C221.936 126.525 224.749 171.6 227.568 216.682L219.214 233.862L219.117 81.4424Z" fill="#EDC37A"/>
<path d="M236.964 39.7073C236.742 36.8185 236.512 33.9158 236.86 31.0409C237.207 28.166 238.165 25.298 240.054 23.1036C241.943 20.9161 244.866 19.4995 247.734 19.8745C249.505 20.1037 251.186 20.9786 252.977 20.93C255.047 20.8675 256.845 19.5898 258.727 18.7356C261.665 17.3954 265.046 17.0412 268.199 17.7496C269.852 18.1176 271.484 18.8051 272.678 20.0134C273.873 21.2217 274.553 23.0133 274.13 24.6591C276.22 24.6591 278.331 24.6591 280.345 25.2077C282.359 25.7493 284.296 26.9021 285.338 28.7076C286.379 30.5131 286.303 33.0339 284.817 34.5061C286.747 34.1172 288.768 35.6033 289.233 37.5129C289.692 39.4296 288.74 41.5198 287.15 42.6795C285.56 43.8392 282.595 44.353 280.657 43.985C278.72 43.6169 276.511 43.0753 274.942 41.8878" fill="#263238"/>
<path d="M235.457 105.122C243.436 107.171 251.575 102.4 253.672 94.4421C254.845 89.9978 255.804 86.2687 255.804 86.2687C255.804 86.2687 267.408 88.2548 271.248 77.2759C275.088 66.29 281.678 40.3254 281.678 40.3254C270.755 30.5548 255.394 27.4577 241.533 32.2354L239.478 32.9437L224.735 86.6437C222.52 94.7199 227.346 103.039 235.457 105.129V105.122Z" fill="#EFCAA6"/>
<path d="M255.873 86.1158C255.873 86.1158 248.714 84.345 242.866 77.2063C242.866 77.2063 243.603 86.2825 254.943 88.9838L255.873 86.1158Z" fill="#D4A87F"/>
<path d="M236.999 44.8252C236.839 44.6794 230.172 40.0406 227.881 47.6585C225.589 55.2764 233.714 56.0055 233.79 55.7902C233.867 55.575 236.992 44.8183 236.992 44.8183L236.999 44.8252Z" fill="#EFCAA6"/>
<path d="M232.339 52.207C232.339 52.207 232.179 52.2625 231.922 52.2973C231.672 52.332 231.276 52.2903 230.922 52.0195C230.207 51.4848 229.915 49.9987 230.29 48.6168C230.478 47.9154 230.825 47.2974 231.235 46.8252C231.638 46.3391 232.11 46.0544 232.54 46.103C232.971 46.1307 233.186 46.4571 233.214 46.7002C233.249 46.9432 233.158 47.0821 233.193 47.1099C233.207 47.1377 233.394 47.0335 233.429 46.7002C233.443 46.5405 233.408 46.3321 233.269 46.1307C233.131 45.9294 232.888 45.7696 232.596 45.7141C231.999 45.5752 231.304 45.9571 230.853 46.478C230.367 46.9918 229.964 47.6793 229.756 48.464C229.346 50.0126 229.7 51.6862 230.7 52.3389C231.193 52.6375 231.693 52.6097 231.978 52.4986C232.269 52.3806 232.36 52.2209 232.339 52.2V52.207Z" fill="#D4A87F"/>
<path d="M272.324 56.2C272.074 57.0402 271.157 57.5263 270.269 57.2763C269.387 57.0333 268.873 56.1514 269.123 55.3111C269.373 54.4709 270.289 53.9848 271.171 54.2278C272.053 54.4709 272.567 55.3528 272.317 56.193L272.324 56.2Z" fill="#263238"/>
<path d="M274.38 55.1375C274.116 55.2764 273.22 53.9917 271.525 53.4292C269.838 52.8389 268.303 53.2972 268.185 53.0264C268.123 52.9014 268.449 52.6028 269.123 52.3875C269.789 52.1723 270.824 52.0959 271.88 52.457C272.935 52.8181 273.692 53.5056 274.067 54.075C274.456 54.6514 274.505 55.0819 274.38 55.1375Z" fill="#263238"/>
<path d="M255.658 50.6098C255.408 51.4501 254.491 51.9362 253.602 51.6862C252.72 51.4431 252.206 50.5612 252.456 49.721C252.706 48.8807 253.623 48.3946 254.505 48.6377C255.387 48.8807 255.901 49.7626 255.651 50.6029L255.658 50.6098Z" fill="#263238"/>
<path d="M257.616 49.8598C257.352 49.9987 256.457 48.714 254.755 48.1515C253.068 47.5613 251.533 48.0196 251.415 47.7488C251.352 47.6238 251.679 47.3252 252.352 47.1099C253.019 46.8946 254.054 46.8182 255.109 47.1793C256.165 47.5404 256.922 48.2279 257.297 48.7974C257.686 49.3737 257.734 49.8043 257.609 49.8598H257.616Z" fill="#263238"/>
<path d="M259.547 64.4983C259.574 64.4011 260.685 64.5678 262.463 64.9289C262.908 65.0261 263.352 65.0817 263.519 64.8108C263.727 64.5331 263.699 64.0053 263.658 63.4289C263.602 62.2484 263.546 61.0054 263.484 59.7068C263.283 54.4153 263.289 50.1307 263.505 50.1237C263.72 50.1237 264.053 54.4014 264.255 59.686C264.296 60.9845 264.331 62.2276 264.366 63.415C264.366 63.9636 264.456 64.6164 264.019 65.1858C263.796 65.4705 263.394 65.5955 263.095 65.5817C262.789 65.5747 262.546 65.4983 262.324 65.4358C260.574 64.9497 259.505 64.6025 259.533 64.5053L259.547 64.4983Z" fill="#263238"/>
<path d="M254.165 63.9915C254.443 64.0679 253.831 65.9081 254.97 67.7414C256.102 69.5816 258.13 70.033 258.061 70.2899C258.047 70.4149 257.505 70.4983 256.672 70.2483C255.852 70.0052 254.755 69.3455 254.054 68.2205C253.359 67.0956 253.311 65.8873 253.498 65.1165C253.686 64.3248 254.047 63.9359 254.165 63.9915Z" fill="#263238"/>
<path d="M274.754 51.943C274.324 52.2278 273.296 51.4361 271.893 50.9431C270.512 50.4014 269.213 50.332 269.074 49.8389C269.019 49.6028 269.338 49.2834 269.977 49.089C270.609 48.8945 271.567 48.8876 272.518 49.2417C273.47 49.5959 274.192 50.2278 274.546 50.7834C274.907 51.3458 274.942 51.7972 274.748 51.943H274.754Z" fill="#263238"/>
<path d="M257.463 42.9919C257.206 43.1378 256.797 42.9086 256.269 42.6031C255.741 42.2975 255.068 41.9225 254.269 41.6239C253.47 41.3323 252.713 41.1725 252.116 41.0614C251.519 40.9434 251.068 40.8531 250.964 40.5753C250.866 40.3184 251.193 39.8878 251.943 39.6031C252.686 39.3115 253.845 39.2559 254.998 39.6795C256.144 40.1101 256.984 40.9156 257.359 41.617C257.741 42.3253 257.706 42.8669 257.463 42.9919Z" fill="#263238"/>
<path d="M281.088 43.8947C281.088 43.8947 272.872 43.8947 265.275 37.6796C260.289 33.5963 254.047 30.7353 252.345 31.5408C250.644 32.3464 249.026 38.0684 243.068 38.499C243.068 38.499 240.943 49.6445 236.623 48.2487C232.304 46.8529 238.943 30.3534 238.943 30.3534L250.922 27.534L263.192 27.9784L274.22 30.4784L283.754 35.9574L281.088 43.8947Z" fill="#263238"/>
<path d="M219 0H46V243H219V0Z" fill="#FAFAFA"/>
<path d="M216.818 242.854C216.818 241.362 216.742 142.804 216.635 0.180456L216.818 0.347034C164.445 0.347034 106.769 0.353975 46.2204 0.360915H46.1976L46.3951 0.180456C46.3799 91.9848 46.3647 176.529 46.3571 242.854L46.1976 242.708C150.41 242.799 215.541 242.847 216.818 242.854C215.541 242.854 150.41 242.91 46.1976 243H46.038V242.854C46.0304 176.536 46.0152 91.9917 46 0.180456V0H46.2204C106.769 0 164.445 0.00694099 216.818 0.0138817H217V0.180456C216.894 142.804 216.818 241.355 216.818 242.854Z" fill="#263238"/>
<path d="M190.5 198H73.5C67.701 198 63 202.701 63 208.5C63 214.299 67.701 219 73.5 219H190.5C196.299 219 201 214.299 201 208.5C201 202.701 196.299 198 190.5 198Z" fill="#343674"/>
<path d="M220.721 213.71L228.804 209.814L224.36 196.682L214.596 194.419C213.687 194.217 212.673 193.974 211.541 193.655C210.221 193.287 208.972 192.696 207.847 191.912C206.479 190.967 204.715 189.641 203.972 188.627C203.048 187.37 201.09 187.836 201.097 189.231C201.097 190.627 203.555 194.148 207.937 196.641C212.319 199.127 204.576 200.335 201.763 200.828C198.951 201.314 190.333 203.238 189.819 204.217C189.069 205.654 190.5 206.752 193.298 206.196C196.125 205.634 204.604 204.564 204.833 206.057C204.833 206.057 204.826 206.071 204.805 206.099C203.395 208.286 203.555 211.14 205.173 213.175C206.735 215.14 209.09 217.606 210.826 217.231C214.089 216.522 220.714 213.696 220.714 213.696L220.721 213.71Z" fill="#EFCAA6"/>
<path d="M220.228 190.592L227.804 216.21L286.629 198.335C299.289 194.488 306.302 180.981 302.17 168.412L287.747 123.539L256.422 131.316L273.609 172.829L220.221 190.599L220.228 190.592Z" fill="#FFD37D"/>
<path d="M287.956 197.884C287.956 197.884 287.858 197.925 287.671 197.988C287.469 198.05 287.192 198.141 286.824 198.259C286.067 198.495 284.963 198.835 283.532 199.28C280.643 200.161 276.456 201.446 271.185 203.057C260.609 206.265 245.707 210.786 228.367 216.043L228.207 216.092L228.152 215.932C225.527 208.106 222.992 199.488 220.055 190.648L219.999 190.474L220.173 190.419C220.638 190.266 221.145 190.092 221.652 189.926C241.262 183.412 259.331 177.412 273.574 172.683L273.484 172.877C269.338 162.808 265.949 154.551 263.581 148.809C262.415 145.948 261.505 143.712 260.873 142.177C260.567 141.42 260.338 140.844 260.178 140.441C260.026 140.045 259.956 139.844 259.956 139.844C259.956 139.844 260.053 140.038 260.22 140.427C260.394 140.83 260.637 141.399 260.956 142.149C261.595 143.677 262.533 145.906 263.734 148.753C266.123 154.489 269.56 162.725 273.748 172.773L273.81 172.912L273.664 172.961C259.429 177.711 241.373 183.731 221.77 190.273C221.263 190.439 220.756 190.613 220.291 190.766L220.402 190.537C223.339 199.391 225.874 208.002 228.485 215.828L228.27 215.717C245.63 210.508 260.54 206.029 271.123 202.849C276.407 201.279 280.608 200.03 283.504 199.168C284.942 198.745 286.046 198.425 286.81 198.203C287.178 198.099 287.463 198.016 287.664 197.96C287.858 197.905 287.956 197.891 287.956 197.891V197.884Z" fill="#E5BB70"/>
<path d="M284.49 180.294C284.435 180.329 284.046 179.648 283.254 178.669C282.47 177.69 281.247 176.447 279.657 175.391C278.06 174.336 276.442 173.69 275.234 173.35C274.025 173.002 273.248 172.905 273.255 172.843C273.255 172.815 273.456 172.822 273.81 172.85C274.164 172.871 274.678 172.954 275.296 173.1C276.539 173.384 278.22 174.009 279.852 175.086C281.484 176.169 282.713 177.475 283.456 178.509C283.831 179.023 284.101 179.468 284.261 179.78C284.428 180.093 284.504 180.273 284.483 180.287L284.49 180.294Z" fill="#E5BB70"/>
<path d="M129.164 209.7C129.164 211.788 127.664 213.108 125.792 213.108C123.932 213.108 122.516 211.788 122.516 209.7C122.516 207.624 123.98 206.316 125.84 206.316C127.712 206.316 129.164 207.624 129.164 209.7ZM123.632 209.7C123.632 211.368 124.652 212.148 125.792 212.148C126.932 212.148 128.048 211.368 128.048 209.7C128.048 208.044 126.956 207.264 125.828 207.264C124.676 207.264 123.632 208.044 123.632 209.7ZM130.6 213V204.12H131.692V209.34L134.224 206.424H135.748L132.652 209.7L135.76 213H134.272L131.692 210.096V213H130.6Z" fill="#FAFAFA"/>
<path d="M59.924 22.636H61.016V30.112H63.944V31H59.924V22.636ZM71.3437 27.7C71.3437 29.788 69.8437 31.108 67.9717 31.108C66.1117 31.108 64.6957 29.788 64.6957 27.7C64.6957 25.624 66.1597 24.316 68.0197 24.316C69.8917 24.316 71.3437 25.624 71.3437 27.7ZM65.8117 27.7C65.8117 29.368 66.8317 30.148 67.9717 30.148C69.1117 30.148 70.2277 29.368 70.2277 27.7C70.2277 26.044 69.1357 25.264 68.0077 25.264C66.8557 25.264 65.8117 26.044 65.8117 27.7ZM80.7067 29.212C80.7067 30.292 79.7587 31.108 78.3067 31.108C76.7707 31.108 75.6907 30.268 75.6187 29.068H76.7467C76.8067 29.704 77.3707 30.184 78.2947 30.184C79.1587 30.184 79.6387 29.752 79.6387 29.212C79.6387 27.748 75.7507 28.6 75.7507 26.152C75.7507 25.144 76.6987 24.316 78.1627 24.316C79.6147 24.316 80.5747 25.096 80.6467 26.38H79.5547C79.5067 25.72 79.0027 25.24 78.1267 25.24C77.3227 25.24 76.8427 25.624 76.8427 26.152C76.8427 27.712 80.6587 26.86 80.7067 29.212ZM85.0442 25.24C83.9762 25.24 83.0882 25.948 82.9682 27.232H87.1202C87.1322 25.948 86.1722 25.24 85.0442 25.24ZM88.1162 28.972C87.7802 30.172 86.7242 31.108 85.0922 31.108C83.2202 31.108 81.8402 29.788 81.8402 27.7C81.8402 25.624 83.1722 24.316 85.0922 24.316C87.0002 24.316 88.2482 25.66 88.2482 27.46C88.2482 27.7 88.2362 27.892 88.2122 28.12H82.9562C83.0402 29.452 83.9762 30.184 85.0922 30.184C86.0762 30.184 86.7002 29.68 86.9402 28.972H88.1162ZM94.5016 31V27.28C94.5016 25.936 93.7696 25.252 92.6656 25.252C91.5496 25.252 90.7816 25.948 90.7816 27.364V31H89.6896V24.424H90.7816V25.36C91.2136 24.676 92.0056 24.304 92.8936 24.304C94.4176 24.304 95.5816 25.24 95.5816 27.124V31H94.5016ZM97.6054 29.2V25.324H96.7534V24.424H97.6054V22.768H98.6974V24.424H100.413V25.324H98.6974V29.2C98.6974 29.848 98.9374 30.076 99.6094 30.076H100.413V31H99.4294C98.2654 31 97.6054 30.52 97.6054 29.2ZM101.737 31V24.424H102.829V31H101.737ZM102.301 23.356C101.881 23.356 101.557 23.032 101.557 22.612C101.557 22.192 101.881 21.868 102.301 21.868C102.697 21.868 103.021 22.192 103.021 22.612C103.021 23.032 102.697 23.356 102.301 23.356ZM114.182 31V27.28C114.182 25.936 113.462 25.252 112.382 25.252C111.278 25.252 110.522 25.96 110.522 27.376V31H109.442V27.28C109.442 25.936 108.722 25.252 107.642 25.252C106.538 25.252 105.782 25.96 105.782 27.376V31H104.69V24.424H105.782V25.372C106.214 24.676 106.994 24.304 107.858 24.304C108.938 24.304 109.838 24.784 110.27 25.768C110.654 24.82 111.59 24.304 112.598 24.304C114.098 24.304 115.262 25.24 115.262 27.124V31H114.182ZM123.293 27.7C123.293 29.788 121.793 31.108 119.921 31.108C118.061 31.108 116.645 29.788 116.645 27.7C116.645 25.624 118.109 24.316 119.969 24.316C121.841 24.316 123.293 25.624 123.293 27.7ZM117.761 27.7C117.761 29.368 118.781 30.148 119.921 30.148C121.061 30.148 122.177 29.368 122.177 27.7C122.177 26.044 121.085 25.264 119.957 25.264C118.805 25.264 117.761 26.044 117.761 27.7ZM129.457 29.212C129.457 30.292 128.509 31.108 127.057 31.108C125.521 31.108 124.441 30.268 124.369 29.068H125.497C125.557 29.704 126.121 30.184 127.045 30.184C127.909 30.184 128.389 29.752 128.389 29.212C128.389 27.748 124.501 28.6 124.501 26.152C124.501 25.144 125.449 24.316 126.913 24.316C128.365 24.316 129.325 25.096 129.397 26.38H128.305C128.257 25.72 127.753 25.24 126.877 25.24C126.073 25.24 125.593 25.624 125.593 26.152C125.593 27.712 129.409 26.86 129.457 29.212ZM130.05 32.716L130.926 29.488H132.126L130.782 32.716H130.05ZM141.388 31V27.28C141.388 25.936 140.656 25.252 139.552 25.252C138.436 25.252 137.668 25.948 137.668 27.364V31H136.576V24.424H137.668V25.36C138.1 24.676 138.892 24.304 139.78 24.304C141.304 24.304 142.468 25.24 142.468 27.124V31H141.388ZM150.492 27.7C150.492 29.788 148.992 31.108 147.12 31.108C145.26 31.108 143.844 29.788 143.844 27.7C143.844 25.624 145.308 24.316 147.168 24.316C149.04 24.316 150.492 25.624 150.492 27.7ZM144.96 27.7C144.96 29.368 145.98 30.148 147.12 30.148C148.26 30.148 149.376 29.368 149.376 27.7C149.376 26.044 148.284 25.264 147.156 25.264C146.004 25.264 144.96 26.044 144.96 27.7ZM156.219 25.636C156.615 24.94 157.479 24.316 158.679 24.316C160.443 24.316 161.799 25.636 161.799 27.688C161.799 29.728 160.443 31.108 158.679 31.108C157.479 31.108 156.627 30.46 156.219 29.788V34.12H155.127V24.424H156.219V25.636ZM160.683 27.688C160.683 26.14 159.663 25.264 158.451 25.264C157.263 25.264 156.219 26.176 156.219 27.7C156.219 29.248 157.263 30.148 158.451 30.148C159.663 30.148 160.683 29.236 160.683 27.688ZM169.477 27.7C169.477 29.788 167.977 31.108 166.105 31.108C164.245 31.108 162.829 29.788 162.829 27.7C162.829 25.624 164.293 24.316 166.153 24.316C168.025 24.316 169.477 25.624 169.477 27.7ZM163.945 27.7C163.945 29.368 164.965 30.148 166.105 30.148C167.245 30.148 168.361 29.368 168.361 27.7C168.361 26.044 167.269 25.264 166.141 25.264C164.989 25.264 163.945 26.044 163.945 27.7ZM170.504 27.688C170.504 25.636 171.86 24.316 173.636 24.316C174.668 24.316 175.616 24.844 176.072 25.6V22.12H177.176V31H176.072V29.764C175.676 30.496 174.824 31.108 173.624 31.108C171.86 31.108 170.504 29.728 170.504 27.688ZM176.072 27.7C176.072 26.176 175.04 25.264 173.84 25.264C172.64 25.264 171.62 26.14 171.62 27.688C171.62 29.236 172.64 30.148 173.84 30.148C175.04 30.148 176.072 29.248 176.072 27.7ZM181.818 25.24C180.75 25.24 179.862 25.948 179.742 27.232H183.894C183.906 25.948 182.946 25.24 181.818 25.24ZM184.89 28.972C184.554 30.172 183.498 31.108 181.866 31.108C179.994 31.108 178.614 29.788 178.614 27.7C178.614 25.624 179.946 24.316 181.866 24.316C183.774 24.316 185.022 25.66 185.022 27.46C185.022 27.7 185.01 27.892 184.986 28.12H179.73C179.814 29.452 180.75 30.184 181.866 30.184C182.85 30.184 183.474 29.68 183.714 28.972H184.89ZM195.955 31V27.28C195.955 25.936 195.235 25.252 194.155 25.252C193.051 25.252 192.295 25.96 192.295 27.376V31H191.215V27.28C191.215 25.936 190.495 25.252 189.415 25.252C188.311 25.252 187.555 25.96 187.555 27.376V31H186.463V24.424H187.555V25.372C187.987 24.676 188.767 24.304 189.631 24.304C190.711 24.304 191.611 24.784 192.043 25.768C192.427 24.82 193.363 24.304 194.371 24.304C195.871 24.304 197.035 25.24 197.035 27.124V31H195.955ZM205.066 27.7C205.066 29.788 203.566 31.108 201.694 31.108C199.834 31.108 198.418 29.788 198.418 27.7C198.418 25.624 199.882 24.316 201.742 24.316C203.614 24.316 205.066 25.624 205.066 27.7ZM199.534 27.7C199.534 29.368 200.554 30.148 201.694 30.148C202.834 30.148 203.95 29.368 203.95 27.7C203.95 26.044 202.858 25.264 201.73 25.264C200.578 25.264 199.534 26.044 199.534 27.7ZM211.23 29.212C211.23 30.292 210.282 31.108 208.83 31.108C207.294 31.108 206.214 30.268 206.142 29.068H207.27C207.33 29.704 207.894 30.184 208.818 30.184C209.682 30.184 210.162 29.752 210.162 29.212C210.162 27.748 206.274 28.6 206.274 26.152C206.274 25.144 207.222 24.316 208.686 24.316C210.138 24.316 211.098 25.096 211.17 26.38H210.078C210.03 25.72 209.526 25.24 208.65 25.24C207.846 25.24 207.366 25.624 207.366 26.152C207.366 27.712 211.182 26.86 211.23 29.212ZM62.72 39.24C61.652 39.24 60.764 39.948 60.644 41.232H64.796C64.808 39.948 63.848 39.24 62.72 39.24ZM65.792 42.972C65.456 44.172 64.4 45.108 62.768 45.108C60.896 45.108 59.516 43.788 59.516 41.7C59.516 39.624 60.848 38.316 62.768 38.316C64.676 38.316 65.924 39.66 65.924 41.46C65.924 41.7 65.912 41.892 65.888 42.12H60.632C60.716 43.452 61.652 44.184 62.768 44.184C63.752 44.184 64.376 43.68 64.616 42.972H65.792ZM72.0934 43.212C72.0934 44.292 71.1454 45.108 69.6934 45.108C68.1574 45.108 67.0774 44.268 67.0054 43.068H68.1334C68.1934 43.704 68.7574 44.184 69.6814 44.184C70.5454 44.184 71.0254 43.752 71.0254 43.212C71.0254 41.748 67.1374 42.6 67.1374 40.152C67.1374 39.144 68.0854 38.316 69.5494 38.316C71.0014 38.316 71.9614 39.096 72.0334 40.38H70.9414C70.8934 39.72 70.3894 39.24 69.5134 39.24C68.7094 39.24 68.2294 39.624 68.2294 40.152C68.2294 41.712 72.0454 40.86 72.0934 43.212ZM73.2269 41.7C73.2269 39.636 74.5589 38.316 76.4309 38.316C78.0629 38.316 79.1309 39.156 79.4669 40.536H78.2909C78.0629 39.744 77.4029 39.24 76.4309 39.24C75.2309 39.24 74.3429 40.092 74.3429 41.7C74.3429 43.332 75.2309 44.184 76.4309 44.184C77.4029 44.184 78.0509 43.716 78.2909 42.888H79.4669C79.1309 44.196 78.0629 45.108 76.4309 45.108C74.5589 45.108 73.2269 43.788 73.2269 41.7ZM80.516 41.688C80.516 39.636 81.872 38.316 83.636 38.316C84.86 38.316 85.7 38.94 86.084 39.624V38.424H87.188V45H86.084V43.776C85.688 44.484 84.836 45.108 83.624 45.108C81.872 45.108 80.516 43.728 80.516 41.688ZM86.084 41.7C86.084 40.176 85.052 39.264 83.852 39.264C82.652 39.264 81.632 40.14 81.632 41.688C81.632 43.236 82.652 44.148 83.852 44.148C85.052 44.148 86.084 43.248 86.084 41.7ZM93.8454 45V41.28C93.8454 39.936 93.1134 39.252 92.0094 39.252C90.8934 39.252 90.1254 39.948 90.1254 41.364V45H89.0334V38.424H90.1254V39.36C90.5574 38.676 91.3494 38.304 92.2374 38.304C93.7614 38.304 94.9254 39.24 94.9254 41.124V45H93.8454ZM99.5052 39.24C98.4372 39.24 97.5492 39.948 97.4292 41.232H101.581C101.593 39.948 100.633 39.24 99.5052 39.24ZM102.577 42.972C102.241 44.172 101.185 45.108 99.5532 45.108C97.6812 45.108 96.3012 43.788 96.3012 41.7C96.3012 39.624 97.6332 38.316 99.5532 38.316C101.461 38.316 102.709 39.66 102.709 41.46C102.709 41.7 102.697 41.892 102.673 42.12H97.4172C97.5012 43.452 98.4372 44.184 99.5532 44.184C100.537 44.184 101.161 43.68 101.401 42.972H102.577ZM103.743 41.688C103.743 39.636 105.099 38.316 106.863 38.316C108.087 38.316 108.927 38.94 109.311 39.624V38.424H110.415V45H109.311V43.776C108.915 44.484 108.063 45.108 106.851 45.108C105.099 45.108 103.743 43.728 103.743 41.688ZM109.311 41.7C109.311 40.176 108.279 39.264 107.079 39.264C105.879 39.264 104.859 40.14 104.859 41.688C104.859 43.236 105.879 44.148 107.079 44.148C108.279 44.148 109.311 43.248 109.311 41.7ZM113.352 41.424V45H112.26V38.424H113.352V39.492C113.724 38.76 114.432 38.304 115.476 38.304V39.432H115.188C114.144 39.432 113.352 39.9 113.352 41.424ZM119.528 41.7C119.528 39.636 120.86 38.316 122.732 38.316C124.364 38.316 125.432 39.156 125.768 40.536H124.592C124.364 39.744 123.704 39.24 122.732 39.24C121.532 39.24 120.644 40.092 120.644 41.7C120.644 43.332 121.532 44.184 122.732 44.184C123.704 44.184 124.352 43.716 124.592 42.888H125.768C125.432 44.196 124.364 45.108 122.732 45.108C120.86 45.108 119.528 43.788 119.528 41.7ZM133.465 41.7C133.465 43.788 131.965 45.108 130.093 45.108C128.233 45.108 126.817 43.788 126.817 41.7C126.817 39.624 128.281 38.316 130.141 38.316C132.013 38.316 133.465 39.624 133.465 41.7ZM127.933 41.7C127.933 43.368 128.953 44.148 130.093 44.148C131.233 44.148 132.349 43.368 132.349 41.7C132.349 40.044 131.257 39.264 130.129 39.264C128.977 39.264 127.933 40.044 127.933 41.7ZM128.761 37.032L131.317 35.532V36.48L128.761 37.848V37.032ZM134.493 41.688C134.493 39.636 135.849 38.316 137.625 38.316C138.657 38.316 139.605 38.844 140.061 39.6V36.12H141.165V45H140.061V43.764C139.665 44.496 138.813 45.108 137.613 45.108C135.849 45.108 134.493 43.728 134.493 41.688ZM140.061 41.7C140.061 40.176 139.029 39.264 137.829 39.264C136.629 39.264 135.609 40.14 135.609 41.688C135.609 43.236 136.629 44.148 137.829 44.148C139.029 44.148 140.061 43.248 140.061 41.7ZM143.01 45V38.424H144.102V45H143.01ZM143.574 37.356C143.154 37.356 142.83 37.032 142.83 36.612C142.83 36.192 143.154 35.868 143.574 35.868C143.97 35.868 144.294 36.192 144.294 36.612C144.294 37.032 143.97 37.356 143.574 37.356ZM145.555 41.688C145.555 39.636 146.911 38.316 148.675 38.316C149.875 38.316 150.739 38.916 151.123 39.624V38.424H152.227V45.144C152.227 46.956 151.015 48.24 149.083 48.24C147.355 48.24 146.119 47.364 145.903 45.96H146.983C147.223 46.752 148.003 47.292 149.083 47.292C150.247 47.292 151.123 46.548 151.123 45.144V43.764C150.727 44.472 149.875 45.108 148.675 45.108C146.911 45.108 145.555 43.728 145.555 41.688ZM151.123 41.7C151.123 40.176 150.091 39.264 148.891 39.264C147.691 39.264 146.671 40.14 146.671 41.688C146.671 43.236 147.691 44.148 148.891 44.148C150.091 44.148 151.123 43.248 151.123 41.7ZM160.312 41.7C160.312 43.788 158.812 45.108 156.94 45.108C155.08 45.108 153.664 43.788 153.664 41.7C153.664 39.624 155.128 38.316 156.988 38.316C158.86 38.316 160.312 39.624 160.312 41.7ZM154.78 41.7C154.78 43.368 155.8 44.148 156.94 44.148C158.08 44.148 159.196 43.368 159.196 41.7C159.196 40.044 158.104 39.264 156.976 39.264C155.824 39.264 154.78 40.044 154.78 41.7ZM166.476 43.212C166.476 44.292 165.528 45.108 164.076 45.108C162.54 45.108 161.46 44.268 161.388 43.068H162.516C162.576 43.704 163.14 44.184 164.064 44.184C164.928 44.184 165.408 43.752 165.408 43.212C165.408 41.748 161.52 42.6 161.52 40.152C161.52 39.144 162.468 38.316 163.932 38.316C165.384 38.316 166.344 39.096 166.416 40.38H165.324C165.276 39.72 164.772 39.24 163.896 39.24C163.092 39.24 162.612 39.624 162.612 40.152C162.612 41.712 166.428 40.86 166.476 43.212ZM171.925 40.812C171.925 42.852 173.245 44.136 175.009 44.136C176.773 44.136 178.093 42.852 178.093 40.812C178.093 38.76 176.773 37.488 175.009 37.488C173.245 37.488 171.925 38.76 171.925 40.812ZM179.209 40.812C179.209 42.444 178.429 43.764 177.229 44.484L179.341 46.584H177.925L176.257 44.916C175.861 45.024 175.441 45.084 175.009 45.084C172.657 45.084 170.809 43.32 170.809 40.812C170.809 38.304 172.657 36.54 175.009 36.54C177.373 36.54 179.209 38.304 179.209 40.812ZM185.15 39.096C185.15 38.148 184.622 37.536 183.374 37.536H181.766V40.704H183.374C184.61 40.704 185.15 40.032 185.15 39.096ZM180.674 36.636H183.374C185.342 36.636 186.278 37.728 186.278 39.096C186.278 40.164 185.69 41.184 184.286 41.496L186.386 45H185.078L183.086 41.58H181.766V45H180.674V36.636ZM64.652 57.212C64.652 58.292 63.704 59.108 62.252 59.108C60.716 59.108 59.636 58.268 59.564 57.068H60.692C60.752 57.704 61.316 58.184 62.24 58.184C63.104 58.184 63.584 57.752 63.584 57.212C63.584 55.748 59.696 56.6 59.696 54.152C59.696 53.144 60.644 52.316 62.108 52.316C63.56 52.316 64.52 53.096 64.592 54.38H63.5C63.452 53.72 62.948 53.24 62.072 53.24C61.268 53.24 60.788 53.624 60.788 54.152C60.788 55.712 64.604 54.86 64.652 57.212ZM66.1935 59V52.424H67.2855V59H66.1935ZM66.7575 51.356C66.3375 51.356 66.0135 51.032 66.0135 50.612C66.0135 50.192 66.3375 49.868 66.7575 49.868C67.1535 49.868 67.4775 50.192 67.4775 50.612C67.4775 51.032 67.1535 51.356 66.7575 51.356ZM73.9587 59V55.28C73.9587 53.936 73.2267 53.252 72.1227 53.252C71.0067 53.252 70.2387 53.948 70.2387 55.364V59H69.1467V52.424H70.2387V53.36C70.6707 52.676 71.4627 52.304 72.3507 52.304C73.8747 52.304 75.0387 53.24 75.0387 55.124V59H73.9587ZM79.6137 55.688C79.6137 53.636 80.9697 52.316 82.7337 52.316C83.9577 52.316 84.7977 52.94 85.1817 53.624V52.424H86.2857V59H85.1817V57.776C84.7857 58.484 83.9337 59.108 82.7217 59.108C80.9697 59.108 79.6137 57.728 79.6137 55.688ZM85.1817 55.7C85.1817 54.176 84.1497 53.264 82.9497 53.264C81.7497 53.264 80.7297 54.14 80.7297 55.688C80.7297 57.236 81.7497 58.148 82.9497 58.148C84.1497 58.148 85.1817 57.248 85.1817 55.7ZM87.723 55.7C87.723 53.636 89.055 52.316 90.927 52.316C92.559 52.316 93.627 53.156 93.963 54.536H92.787C92.559 53.744 91.899 53.24 90.927 53.24C89.727 53.24 88.839 54.092 88.839 55.7C88.839 57.332 89.727 58.184 90.927 58.184C91.899 58.184 92.547 57.716 92.787 56.888H93.963C93.627 58.196 92.559 59.108 90.927 59.108C89.055 59.108 87.723 57.788 87.723 55.7ZM95.0121 55.7C95.0121 53.636 96.3441 52.316 98.2161 52.316C99.8481 52.316 100.916 53.156 101.252 54.536H100.076C99.8481 53.744 99.1881 53.24 98.2161 53.24C97.0161 53.24 96.1281 54.092 96.1281 55.7C96.1281 57.332 97.0161 58.184 98.2161 58.184C99.1881 58.184 99.8361 57.716 100.076 56.888H101.252C100.916 58.196 99.8481 59.108 98.2161 59.108C96.3441 59.108 95.0121 57.788 95.0121 55.7ZM105.505 53.24C104.437 53.24 103.549 53.948 103.429 55.232H107.581C107.593 53.948 106.633 53.24 105.505 53.24ZM108.577 56.972C108.241 58.172 107.185 59.108 105.553 59.108C103.681 59.108 102.301 57.788 102.301 55.7C102.301 53.624 103.633 52.316 105.553 52.316C107.461 52.316 108.709 53.66 108.709 55.46C108.709 55.7 108.697 55.892 108.673 56.12H103.417C103.501 57.452 104.437 58.184 105.553 58.184C106.537 58.184 107.161 57.68 107.401 56.972H108.577ZM114.879 57.212C114.879 58.292 113.931 59.108 112.479 59.108C110.943 59.108 109.863 58.268 109.791 57.068H110.919C110.979 57.704 111.543 58.184 112.467 58.184C113.331 58.184 113.811 57.752 113.811 57.212C113.811 55.748 109.923 56.6 109.923 54.152C109.923 53.144 110.871 52.316 112.335 52.316C113.787 52.316 114.747 53.096 114.819 54.38H113.727C113.679 53.72 113.175 53.24 112.299 53.24C111.495 53.24 111.015 53.624 111.015 54.152C111.015 55.712 114.831 54.86 114.879 57.212ZM122.66 55.7C122.66 57.788 121.16 59.108 119.288 59.108C117.428 59.108 116.012 57.788 116.012 55.7C116.012 53.624 117.476 52.316 119.336 52.316C121.208 52.316 122.66 53.624 122.66 55.7ZM117.128 55.7C117.128 57.368 118.148 58.148 119.288 58.148C120.428 58.148 121.544 57.368 121.544 55.7C121.544 54.044 120.452 53.264 119.324 53.264C118.172 53.264 117.128 54.044 117.128 55.7ZM126.887 55.688C126.887 53.636 128.243 52.316 130.007 52.316C131.231 52.316 132.071 52.94 132.455 53.624V52.424H133.559V59H132.455V57.776C132.059 58.484 131.207 59.108 129.995 59.108C128.243 59.108 126.887 57.728 126.887 55.688ZM132.455 55.7C132.455 54.176 131.423 53.264 130.223 53.264C129.023 53.264 128.003 54.14 128.003 55.688C128.003 57.236 129.023 58.148 130.223 58.148C131.423 58.148 132.455 57.248 132.455 55.7ZM138.604 59V50.12H139.696V59H138.604ZM141.149 55.688C141.149 53.636 142.505 52.316 144.269 52.316C145.493 52.316 146.333 52.94 146.717 53.624V52.424H147.821V59H146.717V57.776C146.321 58.484 145.469 59.108 144.257 59.108C142.505 59.108 141.149 57.728 141.149 55.688ZM146.717 55.7C146.717 54.176 145.685 53.264 144.485 53.264C143.285 53.264 142.265 54.14 142.265 55.688C142.265 57.236 143.285 58.148 144.485 58.148C145.685 58.148 146.717 57.248 146.717 55.7ZM152.457 55.7C152.457 53.636 153.789 52.316 155.661 52.316C157.293 52.316 158.361 53.156 158.697 54.536H157.521C157.293 53.744 156.633 53.24 155.661 53.24C154.461 53.24 153.573 54.092 153.573 55.7C153.573 57.332 154.461 58.184 155.661 58.184C156.633 58.184 157.281 57.716 157.521 56.888H158.697C158.361 58.196 157.293 59.108 155.661 59.108C153.789 59.108 152.457 57.788 152.457 55.7ZM159.746 55.688C159.746 53.636 161.102 52.316 162.866 52.316C164.09 52.316 164.93 52.94 165.314 53.624V52.424H166.418V59H165.314V57.776C164.918 58.484 164.066 59.108 162.854 59.108C161.102 59.108 159.746 57.728 159.746 55.688ZM165.314 55.7C165.314 54.176 164.282 53.264 163.082 53.264C161.882 53.264 160.862 54.14 160.862 55.688C160.862 57.236 161.882 58.148 163.082 58.148C164.282 58.148 165.314 57.248 165.314 55.7ZM161.906 51.116L164.462 49.616V50.564L161.906 51.932V51.116ZM177.756 59V55.28C177.756 53.936 177.036 53.252 175.956 53.252C174.852 53.252 174.096 53.96 174.096 55.376V59H173.016V55.28C173.016 53.936 172.296 53.252 171.216 53.252C170.112 53.252 169.356 53.96 169.356 55.376V59H168.264V52.424H169.356V53.372C169.788 52.676 170.568 52.304 171.432 52.304C172.512 52.304 173.412 52.784 173.844 53.768C174.228 52.82 175.164 52.304 176.172 52.304C177.672 52.304 178.836 53.24 178.836 55.124V59H177.756ZM180.219 55.688C180.219 53.636 181.575 52.316 183.339 52.316C184.563 52.316 185.403 52.94 185.787 53.624V52.424H186.891V59H185.787V57.776C185.391 58.484 184.539 59.108 183.327 59.108C181.575 59.108 180.219 57.728 180.219 55.688ZM185.787 55.7C185.787 54.176 184.755 53.264 183.555 53.264C182.355 53.264 181.335 54.14 181.335 55.688C181.335 57.236 182.355 58.148 183.555 58.148C184.755 58.148 185.787 57.248 185.787 55.7ZM189.829 55.424V59H188.737V52.424H189.829V53.492C190.201 52.76 190.909 52.304 191.953 52.304V53.432H191.665C190.621 53.432 189.829 53.9 189.829 55.424ZM192.805 55.688C192.805 53.636 194.161 52.316 195.925 52.316C197.149 52.316 197.989 52.94 198.373 53.624V52.424H199.477V59H198.373V57.776C197.977 58.484 197.125 59.108 195.913 59.108C194.161 59.108 192.805 57.728 192.805 55.688ZM198.373 55.7C198.373 54.176 197.341 53.264 196.141 53.264C194.941 53.264 193.921 54.14 193.921 55.688C193.921 57.236 194.941 58.148 196.141 58.148C197.341 58.148 198.373 57.248 198.373 55.7ZM202.39 58.328C202.39 58.748 202.066 59.072 201.67 59.072C201.25 59.072 200.926 58.748 200.926 58.328C200.926 57.908 201.25 57.584 201.67 57.584C202.066 57.584 202.39 57.908 202.39 58.328ZM61.016 82.608H62.624C63.872 82.608 64.4 82.02 64.4 81.084C64.4 80.112 63.872 79.536 62.624 79.536H61.016V82.608ZM65.516 81.084C65.516 82.356 64.7 83.508 62.624 83.508H61.016V87H59.924V78.636H62.624C64.592 78.636 65.516 79.716 65.516 81.084ZM73.1132 83.7C73.1132 85.788 71.6132 87.108 69.7412 87.108C67.8812 87.108 66.4652 85.788 66.4652 83.7C66.4652 81.624 67.9292 80.316 69.7892 80.316C71.6612 80.316 73.1132 81.624 73.1132 83.7ZM67.5812 83.7C67.5812 85.368 68.6012 86.148 69.7412 86.148C70.8812 86.148 71.9972 85.368 71.9972 83.7C71.9972 82.044 70.9052 81.264 69.7772 81.264C68.6252 81.264 67.5812 82.044 67.5812 83.7ZM75.641 83.424V87H74.549V80.424H75.641V81.492C76.013 80.76 76.721 80.304 77.765 80.304V81.432H77.477C76.433 81.432 75.641 81.9 75.641 83.424ZM82.4288 87V81.324H81.5768V80.424H82.4288V79.956C82.4288 78.492 83.1488 77.832 84.8288 77.832V78.744C83.8448 78.744 83.5208 79.104 83.5208 79.956V80.424H84.9008V81.324H83.5208V87H82.4288ZM85.766 83.688C85.766 81.636 87.122 80.316 88.886 80.316C90.11 80.316 90.95 80.94 91.334 81.624V80.424H92.438V87H91.334V85.776C90.938 86.484 90.086 87.108 88.874 87.108C87.122 87.108 85.766 85.728 85.766 83.688ZM91.334 83.7C91.334 82.176 90.302 81.264 89.102 81.264C87.902 81.264 86.882 82.14 86.882 83.688C86.882 85.236 87.902 86.148 89.102 86.148C90.302 86.148 91.334 85.248 91.334 83.7ZM93.5034 80.424H94.6794L96.7314 85.992L98.7714 80.424H99.9354L97.3554 87H96.0834L93.5034 80.424ZM107.25 83.7C107.25 85.788 105.75 87.108 103.878 87.108C102.018 87.108 100.602 85.788 100.602 83.7C100.602 81.624 102.066 80.316 103.926 80.316C105.798 80.316 107.25 81.624 107.25 83.7ZM101.718 83.7C101.718 85.368 102.738 86.148 103.878 86.148C105.018 86.148 106.134 85.368 106.134 83.7C106.134 82.044 105.042 81.264 103.914 81.264C102.762 81.264 101.718 82.044 101.718 83.7ZM109.778 83.424V87H108.686V80.424H109.778V81.492C110.15 80.76 110.858 80.304 111.902 80.304V81.432H111.614C110.57 81.432 109.778 81.9 109.778 83.424ZM112.214 88.716L113.09 85.488H114.29L112.946 88.716H112.214ZM117.96 80.424H119.136L121.188 85.992L123.228 80.424H124.392L121.812 87H120.54L117.96 80.424ZM128.263 81.24C127.195 81.24 126.307 81.948 126.187 83.232H130.339C130.351 81.948 129.391 81.24 128.263 81.24ZM131.335 84.972C130.999 86.172 129.943 87.108 128.311 87.108C126.439 87.108 125.059 85.788 125.059 83.7C125.059 81.624 126.391 80.316 128.311 80.316C130.219 80.316 131.467 81.66 131.467 83.46C131.467 83.7 131.455 83.892 131.431 84.12H126.175C126.259 85.452 127.195 86.184 128.311 86.184C129.295 86.184 129.919 85.68 130.159 84.972H131.335ZM135.7 83.688C135.7 81.636 137.056 80.316 138.82 80.316C140.044 80.316 140.884 80.94 141.268 81.624V80.424H142.372V87H141.268V85.776C140.872 86.484 140.02 87.108 138.808 87.108C137.056 87.108 135.7 85.728 135.7 83.688ZM141.268 83.7C141.268 82.176 140.236 81.264 139.036 81.264C137.836 81.264 136.816 82.14 136.816 83.688C136.816 85.236 137.836 86.148 139.036 86.148C140.236 86.148 141.268 85.248 141.268 83.7ZM147.416 87V78.12H148.508V87H147.416ZM149.961 83.688C149.961 81.636 151.317 80.316 153.081 80.316C154.305 80.316 155.145 80.94 155.529 81.624V80.424H156.633V87H155.529V85.776C155.133 86.484 154.281 87.108 153.069 87.108C151.317 87.108 149.961 85.728 149.961 83.688ZM155.529 83.7C155.529 82.176 154.497 81.264 153.297 81.264C152.097 81.264 151.077 82.14 151.077 83.688C151.077 85.236 152.097 86.148 153.297 86.148C154.497 86.148 155.529 85.248 155.529 83.7ZM59.516 97.7C59.516 95.636 60.848 94.316 62.72 94.316C64.352 94.316 65.42 95.156 65.756 96.536H64.58C64.352 95.744 63.692 95.24 62.72 95.24C61.52 95.24 60.632 96.092 60.632 97.7C60.632 99.332 61.52 100.184 62.72 100.184C63.692 100.184 64.34 99.716 64.58 98.888H65.756C65.42 100.196 64.352 101.108 62.72 101.108C60.848 101.108 59.516 99.788 59.516 97.7ZM73.4531 97.7C73.4531 99.788 71.9531 101.108 70.0811 101.108C68.2211 101.108 66.8051 99.788 66.8051 97.7C66.8051 95.624 68.2691 94.316 70.1291 94.316C72.0011 94.316 73.4531 95.624 73.4531 97.7ZM67.9211 97.7C67.9211 99.368 68.9411 100.148 70.0811 100.148C71.2211 100.148 72.3371 99.368 72.3371 97.7C72.3371 96.044 71.2451 95.264 70.1171 95.264C68.9651 95.264 67.9211 96.044 67.9211 97.7ZM79.7008 101V97.28C79.7008 95.936 78.9688 95.252 77.8648 95.252C76.7488 95.252 75.9808 95.948 75.9808 97.364V101H74.8888V94.424H75.9808V95.36C76.4128 94.676 77.2048 94.304 78.0928 94.304C79.6168 94.304 80.7808 95.24 80.7808 97.124V101H79.7008ZM82.7686 101V95.324H81.9166V94.424H82.7686V93.956C82.7686 92.492 83.4886 91.832 85.1686 91.832V92.744C84.1846 92.744 83.8606 93.104 83.8606 93.956V94.424H85.2406V95.324H83.8606V101H82.7686ZM86.5138 101V94.424H87.6058V101H86.5138ZM87.0778 93.356C86.6578 93.356 86.3338 93.032 86.3338 92.612C86.3338 92.192 86.6578 91.868 87.0778 91.868C87.4738 91.868 87.7978 92.192 87.7978 92.612C87.7978 93.032 87.4738 93.356 87.0778 93.356ZM89.059 97.688C89.059 95.636 90.415 94.316 92.179 94.316C93.379 94.316 94.243 94.916 94.627 95.624V94.424H95.731V101.144C95.731 102.956 94.519 104.24 92.587 104.24C90.859 104.24 89.623 103.364 89.407 101.96H90.487C90.727 102.752 91.507 103.292 92.587 103.292C93.751 103.292 94.627 102.548 94.627 101.144V99.764C94.231 100.472 93.379 101.108 92.179 101.108C90.415 101.108 89.059 99.728 89.059 97.688ZM94.627 97.7C94.627 96.176 93.595 95.264 92.395 95.264C91.195 95.264 90.175 96.14 90.175 97.688C90.175 99.236 91.195 100.148 92.395 100.148C93.595 100.148 94.627 99.248 94.627 97.7ZM103.408 94.424V101H102.316V100.028C101.896 100.712 101.092 101.096 100.216 101.096C98.7043 101.096 97.5163 100.16 97.5163 98.276V94.424H98.5963V98.132C98.5963 99.464 99.3283 100.148 100.432 100.148C101.56 100.148 102.316 99.452 102.316 98.036V94.424H103.408ZM106.344 97.424V101H105.252V94.424H106.344V95.492C106.716 94.76 107.424 94.304 108.468 94.304V95.432H108.18C107.136 95.432 106.344 95.9 106.344 97.424ZM109.321 97.688C109.321 95.636 110.677 94.316 112.441 94.316C113.665 94.316 114.505 94.94 114.889 95.624V94.424H115.993V101H114.889V99.776C114.493 100.484 113.641 101.108 112.429 101.108C110.677 101.108 109.321 99.728 109.321 97.688ZM114.889 97.7C114.889 96.176 113.857 95.264 112.657 95.264C111.457 95.264 110.437 96.14 110.437 97.688C110.437 99.236 111.457 100.148 112.657 100.148C113.857 100.148 114.889 99.248 114.889 97.7ZM117.43 97.7C117.43 95.636 118.762 94.316 120.634 94.316C122.266 94.316 123.334 95.156 123.67 96.536H122.494C122.266 95.744 121.606 95.24 120.634 95.24C119.434 95.24 118.546 96.092 118.546 97.7C118.546 99.332 119.434 100.184 120.634 100.184C121.606 100.184 122.254 99.716 122.494 98.888H123.67C123.334 100.196 122.266 101.108 120.634 101.108C118.762 101.108 117.43 99.788 117.43 97.7ZM125.127 101V94.424H126.219V101H125.127ZM125.691 93.356C125.271 93.356 124.947 93.032 124.947 92.612C124.947 92.192 125.271 91.868 125.691 91.868C126.087 91.868 126.411 92.192 126.411 92.612C126.411 93.032 126.087 93.356 125.691 93.356ZM134.32 97.7C134.32 99.788 132.82 101.108 130.948 101.108C129.088 101.108 127.672 99.788 127.672 97.7C127.672 95.624 129.136 94.316 130.996 94.316C132.868 94.316 134.32 95.624 134.32 97.7ZM128.788 97.7C128.788 99.368 129.808 100.148 130.948 100.148C132.088 100.148 133.204 99.368 133.204 97.7C133.204 96.044 132.112 95.264 130.984 95.264C129.832 95.264 128.788 96.044 128.788 97.7ZM129.616 93.032L132.172 91.532V92.48L129.616 93.848V93.032ZM140.568 101V97.28C140.568 95.936 139.836 95.252 138.732 95.252C137.616 95.252 136.848 95.948 136.848 97.364V101H135.756V94.424H136.848V95.36C137.28 94.676 138.072 94.304 138.96 94.304C140.484 94.304 141.648 95.24 141.648 97.124V101H140.568ZM146.223 97.688C146.223 95.636 147.579 94.316 149.355 94.316C150.387 94.316 151.335 94.844 151.791 95.6V92.12H152.895V101H151.791V99.764C151.395 100.496 150.543 101.108 149.343 101.108C147.579 101.108 146.223 99.728 146.223 97.688ZM151.791 97.7C151.791 96.176 150.759 95.264 149.559 95.264C148.359 95.264 147.339 96.14 147.339 97.688C147.339 99.236 148.359 100.148 149.559 100.148C150.759 100.148 151.791 99.248 151.791 97.7ZM157.536 95.24C156.468 95.24 155.58 95.948 155.46 97.232H159.612C159.624 95.948 158.664 95.24 157.536 95.24ZM160.608 98.972C160.272 100.172 159.216 101.108 157.584 101.108C155.712 101.108 154.332 99.788 154.332 97.7C154.332 95.624 155.664 94.316 157.584 94.316C159.492 94.316 160.74 95.66 160.74 97.46C160.74 97.7 160.728 97.892 160.704 98.12H155.448C155.532 99.452 156.468 100.184 157.584 100.184C158.568 100.184 159.192 99.68 159.432 98.972H160.608ZM165.381 101V92.12H166.473V101H165.381ZM167.926 97.688C167.926 95.636 169.282 94.316 171.046 94.316C172.27 94.316 173.11 94.94 173.494 95.624V94.424H174.598V101H173.494V99.776C173.098 100.484 172.246 101.108 171.034 101.108C169.282 101.108 167.926 99.728 167.926 97.688ZM173.494 97.7C173.494 96.176 172.462 95.264 171.262 95.264C170.062 95.264 169.042 96.14 169.042 97.688C169.042 99.236 170.062 100.148 171.262 100.148C172.462 100.148 173.494 99.248 173.494 97.7ZM59.516 111.688C59.516 109.636 60.872 108.316 62.636 108.316C63.86 108.316 64.7 108.94 65.084 109.624V108.424H66.188V115H65.084V113.776C64.688 114.484 63.836 115.108 62.624 115.108C60.872 115.108 59.516 113.728 59.516 111.688ZM65.084 111.7C65.084 110.176 64.052 109.264 62.852 109.264C61.652 109.264 60.632 110.14 60.632 111.688C60.632 113.236 61.652 114.148 62.852 114.148C64.052 114.148 65.084 113.248 65.084 111.7ZM69.1254 109.636C69.5214 108.94 70.3854 108.316 71.5854 108.316C73.3494 108.316 74.7054 109.636 74.7054 111.688C74.7054 113.728 73.3494 115.108 71.5854 115.108C70.3854 115.108 69.5334 114.46 69.1254 113.788V118.12H68.0334V108.424H69.1254V109.636ZM73.5894 111.688C73.5894 110.14 72.5694 109.264 71.3574 109.264C70.1694 109.264 69.1254 110.176 69.1254 111.7C69.1254 113.248 70.1694 114.148 71.3574 114.148C72.5694 114.148 73.5894 113.236 73.5894 111.688ZM76.1428 115V106.12H77.2348V115H76.1428ZM79.0959 115V108.424H80.1879V115H79.0959ZM79.6599 107.356C79.2399 107.356 78.9159 107.032 78.9159 106.612C78.9159 106.192 79.2399 105.868 79.6599 105.868C80.0559 105.868 80.3799 106.192 80.3799 106.612C80.3799 107.032 80.0559 107.356 79.6599 107.356ZM81.641 111.7C81.641 109.636 82.973 108.316 84.845 108.316C86.477 108.316 87.545 109.156 87.881 110.536H86.705C86.477 109.744 85.817 109.24 84.845 109.24C83.645 109.24 82.757 110.092 82.757 111.7C82.757 113.332 83.645 114.184 84.845 114.184C85.817 114.184 86.465 113.716 86.705 112.888H87.881C87.545 114.196 86.477 115.108 84.845 115.108C82.973 115.108 81.641 113.788 81.641 111.7ZM88.9301 111.688C88.9301 109.636 90.2861 108.316 92.0501 108.316C93.2741 108.316 94.1141 108.94 94.4981 109.624V108.424H95.6021V115H94.4981V113.776C94.1021 114.484 93.2501 115.108 92.0381 115.108C90.2861 115.108 88.9301 113.728 88.9301 111.688ZM94.4981 111.7C94.4981 110.176 93.4661 109.264 92.2661 109.264C91.0661 109.264 90.0461 110.14 90.0461 111.688C90.0461 113.236 91.0661 114.148 92.2661 114.148C93.4661 114.148 94.4981 113.248 94.4981 111.7ZM97.0394 111.7C97.0394 109.636 98.3714 108.316 100.243 108.316C101.875 108.316 102.943 109.156 103.279 110.536H102.103C101.875 109.744 101.215 109.24 100.243 109.24C99.0434 109.24 98.1554 110.092 98.1554 111.7C98.1554 113.332 99.0434 114.184 100.243 114.184C101.215 114.184 101.863 113.716 102.103 112.888H103.279C102.943 114.196 101.875 115.108 100.243 115.108C98.3714 115.108 97.0394 113.788 97.0394 111.7ZM104.737 115V108.424H105.829V115H104.737ZM105.301 107.356C104.881 107.356 104.557 107.032 104.557 106.612C104.557 106.192 104.881 105.868 105.301 105.868C105.697 105.868 106.021 106.192 106.021 106.612C106.021 107.032 105.697 107.356 105.301 107.356ZM113.93 111.7C113.93 113.788 112.43 115.108 110.558 115.108C108.698 115.108 107.282 113.788 107.282 111.7C107.282 109.624 108.746 108.316 110.606 108.316C112.478 108.316 113.93 109.624 113.93 111.7ZM108.398 111.7C108.398 113.368 109.418 114.148 110.558 114.148C111.698 114.148 112.814 113.368 112.814 111.7C112.814 110.044 111.722 109.264 110.594 109.264C109.442 109.264 108.398 110.044 108.398 111.7ZM109.226 107.032L111.782 105.532V106.48L109.226 107.848V107.032ZM120.177 115V111.28C120.177 109.936 119.445 109.252 118.341 109.252C117.225 109.252 116.457 109.948 116.457 111.364V115H115.365V108.424H116.457V109.36C116.889 108.676 117.681 108.304 118.569 108.304C120.093 108.304 121.257 109.24 121.257 111.124V115H120.177ZM128.736 113.752L130.776 108.424H131.904L127.944 118.096H126.816L128.112 114.928L125.46 108.424H126.672L128.736 113.752ZM136.201 115V106.12H137.293V109.372C137.725 108.676 138.541 108.304 139.465 108.304C140.929 108.304 142.093 109.24 142.093 111.124V115H141.013V111.28C141.013 109.936 140.281 109.252 139.177 109.252C138.061 109.252 137.293 109.948 137.293 111.364V115H136.201ZM143.469 111.688C143.469 109.636 144.825 108.316 146.589 108.316C147.813 108.316 148.653 108.94 149.037 109.624V108.424H150.141V115H149.037V113.776C148.641 114.484 147.789 115.108 146.577 115.108C144.825 115.108 143.469 113.728 143.469 111.688ZM149.037 111.7C149.037 110.176 148.005 109.264 146.805 109.264C145.605 109.264 144.585 110.14 144.585 111.688C144.585 113.236 145.605 114.148 146.805 114.148C148.005 114.148 149.037 113.248 149.037 111.7ZM153.079 109.648C153.499 108.916 154.375 108.316 155.539 108.316C157.315 108.316 158.659 109.636 158.659 111.688C158.659 113.728 157.303 115.108 155.539 115.108C154.339 115.108 153.487 114.508 153.079 113.788V115H151.987V106.12H153.079V109.648ZM157.543 111.688C157.543 110.14 156.523 109.264 155.311 109.264C154.123 109.264 153.079 110.176 153.079 111.7C153.079 113.248 154.123 114.148 155.311 114.148C156.523 114.148 157.543 113.236 157.543 111.688ZM160.096 115V108.424H161.188V115H160.096ZM160.66 107.356C160.24 107.356 159.916 107.032 159.916 106.612C159.916 106.192 160.24 105.868 160.66 105.868C161.056 105.868 161.38 106.192 161.38 106.612C161.38 107.032 161.056 107.356 160.66 107.356ZM163.049 115V106.12H164.141V115H163.049ZM166.002 115V108.424H167.094V115H166.002ZM166.566 107.356C166.146 107.356 165.822 107.032 165.822 106.612C165.822 106.192 166.146 105.868 166.566 105.868C166.962 105.868 167.286 106.192 167.286 106.612C167.286 107.032 166.962 107.356 166.566 107.356ZM169.195 113.2V109.324H168.343V108.424H169.195V106.768H170.287V108.424H172.003V109.324H170.287V113.2C170.287 113.848 170.527 114.076 171.199 114.076H172.003V115H171.019C169.855 115 169.195 114.52 169.195 113.2ZM172.918 111.688C172.918 109.636 174.274 108.316 176.038 108.316C177.262 108.316 178.102 108.94 178.486 109.624V108.424H179.59V115H178.486V113.776C178.09 114.484 177.238 115.108 176.026 115.108C174.274 115.108 172.918 113.728 172.918 111.688ZM178.486 111.7C178.486 110.176 177.454 109.264 176.254 109.264C175.054 109.264 174.034 110.14 174.034 111.688C174.034 113.236 175.054 114.148 176.254 114.148C177.454 114.148 178.486 113.248 178.486 111.7ZM62.72 123.24C61.652 123.24 60.764 123.948 60.644 125.232H64.796C64.808 123.948 63.848 123.24 62.72 123.24ZM65.792 126.972C65.456 128.172 64.4 129.108 62.768 129.108C60.896 129.108 59.516 127.788 59.516 125.7C59.516 123.624 60.848 122.316 62.768 122.316C64.676 122.316 65.924 123.66 65.924 125.46C65.924 125.7 65.912 125.892 65.888 126.12H60.632C60.716 127.452 61.652 128.184 62.768 128.184C63.752 128.184 64.376 127.68 64.616 126.972H65.792ZM67.3654 129V120.12H68.4574V129H67.3654ZM73.1098 125.688C73.1098 123.636 74.4658 122.316 76.2298 122.316C77.4538 122.316 78.2938 122.94 78.6778 123.624V122.424H79.7818V129H78.6778V127.776C78.2818 128.484 77.4298 129.108 76.2178 129.108C74.4658 129.108 73.1098 127.728 73.1098 125.688ZM78.6778 125.7C78.6778 124.176 77.6458 123.264 76.4458 123.264C75.2458 123.264 74.2258 124.14 74.2258 125.688C74.2258 127.236 75.2458 128.148 76.4458 128.148C77.6458 128.148 78.6778 127.248 78.6778 125.7ZM81.2191 125.7C81.2191 123.636 82.5511 122.316 84.4231 122.316C86.0551 122.316 87.1231 123.156 87.4591 124.536H86.2831C86.0551 123.744 85.3951 123.24 84.4231 123.24C83.2231 123.24 82.3351 124.092 82.3351 125.7C82.3351 127.332 83.2231 128.184 84.4231 128.184C85.3951 128.184 86.0431 127.716 86.2831 126.888H87.4591C87.1231 128.196 86.0551 129.108 84.4231 129.108C82.5511 129.108 81.2191 127.788 81.2191 125.7ZM88.5082 125.7C88.5082 123.636 89.8402 122.316 91.7122 122.316C93.3442 122.316 94.4122 123.156 94.7482 124.536H93.5722C93.3442 123.744 92.6842 123.24 91.7122 123.24C90.5122 123.24 89.6242 124.092 89.6242 125.7C89.6242 127.332 90.5122 128.184 91.7122 128.184C92.6842 128.184 93.3322 127.716 93.5722 126.888H94.7482C94.4122 128.196 93.3442 129.108 91.7122 129.108C89.8402 129.108 88.5082 127.788 88.5082 125.7ZM99.0013 123.24C97.9333 123.24 97.0452 123.948 96.9253 125.232H101.077C101.089 123.948 100.129 123.24 99.0013 123.24ZM102.073 126.972C101.737 128.172 100.681 129.108 99.0493 129.108C97.1773 129.108 95.7973 127.788 95.7973 125.7C95.7973 123.624 97.1293 122.316 99.0493 122.316C100.957 122.316 102.205 123.66 102.205 125.46C102.205 125.7 102.193 125.892 102.169 126.12H96.9133C96.9973 127.452 97.9333 128.184 99.0493 128.184C100.033 128.184 100.657 127.68 100.897 126.972H102.073ZM108.375 127.212C108.375 128.292 107.427 129.108 105.975 129.108C104.439 129.108 103.359 128.268 103.287 127.068H104.415C104.475 127.704 105.039 128.184 105.963 128.184C106.827 128.184 107.307 127.752 107.307 127.212C107.307 125.748 103.419 126.6 103.419 124.152C103.419 123.144 104.367 122.316 105.831 122.316C107.283 122.316 108.243 123.096 108.315 124.38H107.223C107.175 123.72 106.671 123.24 105.795 123.24C104.991 123.24 104.511 123.624 104.511 124.152C104.511 125.712 108.327 124.86 108.375 127.212ZM116.156 125.7C116.156 127.788 114.656 129.108 112.784 129.108C110.924 129.108 109.508 127.788 109.508 125.7C109.508 123.624 110.972 122.316 112.832 122.316C114.704 122.316 116.156 123.624 116.156 125.7ZM110.624 125.7C110.624 127.368 111.644 128.148 112.784 128.148C113.924 128.148 115.04 127.368 115.04 125.7C115.04 124.044 113.948 123.264 112.82 123.264C111.668 123.264 110.624 124.044 110.624 125.7ZM120.383 125.688C120.383 123.636 121.739 122.316 123.503 122.316C124.727 122.316 125.567 122.94 125.951 123.624V122.424H127.055V129H125.951V127.776C125.555 128.484 124.703 129.108 123.491 129.108C121.739 129.108 120.383 127.728 120.383 125.688ZM125.951 125.7C125.951 124.176 124.919 123.264 123.719 123.264C122.519 123.264 121.499 124.14 121.499 125.688C121.499 127.236 122.519 128.148 123.719 128.148C124.919 128.148 125.951 127.248 125.951 125.7ZM132.1 129V120.12H133.192V129H132.1ZM134.645 125.688C134.645 123.636 136.001 122.316 137.765 122.316C138.989 122.316 139.829 122.94 140.213 123.624V122.424H141.317V129H140.213V127.776C139.817 128.484 138.965 129.108 137.753 129.108C136.001 129.108 134.645 127.728 134.645 125.688ZM140.213 125.7C140.213 124.176 139.181 123.264 137.981 123.264C136.781 123.264 135.761 124.14 135.761 125.688C135.761 127.236 136.781 128.148 137.981 128.148C139.181 128.148 140.213 127.248 140.213 125.7ZM145.954 125.7C145.954 123.636 147.286 122.316 149.158 122.316C150.79 122.316 151.858 123.156 152.194 124.536H151.018C150.79 123.744 150.13 123.24 149.158 123.24C147.958 123.24 147.07 124.092 147.07 125.7C147.07 127.332 147.958 128.184 149.158 128.184C150.13 128.184 150.778 127.716 151.018 126.888H152.194C151.858 128.196 150.79 129.108 149.158 129.108C147.286 129.108 145.954 127.788 145.954 125.7ZM153.243 125.688C153.243 123.636 154.599 122.316 156.363 122.316C157.587 122.316 158.427 122.94 158.811 123.624V122.424H159.915V129H158.811V127.776C158.415 128.484 157.563 129.108 156.351 129.108C154.599 129.108 153.243 127.728 153.243 125.688ZM158.811 125.7C158.811 124.176 157.779 123.264 156.579 123.264C155.379 123.264 154.359 124.14 154.359 125.688C154.359 127.236 155.379 128.148 156.579 128.148C157.779 128.148 158.811 127.248 158.811 125.7ZM155.403 121.116L157.959 119.616V120.564L155.403 121.932V121.116ZM171.252 129V125.28C171.252 123.936 170.532 123.252 169.452 123.252C168.348 123.252 167.592 123.96 167.592 125.376V129H166.512V125.28C166.512 123.936 165.792 123.252 164.712 123.252C163.608 123.252 162.852 123.96 162.852 125.376V129H161.76V122.424H162.852V123.372C163.284 122.676 164.064 122.304 164.928 122.304C166.008 122.304 166.908 122.784 167.34 123.768C167.724 122.82 168.66 122.304 169.668 122.304C171.168 122.304 172.332 123.24 172.332 125.124V129H171.252ZM173.715 125.688C173.715 123.636 175.071 122.316 176.835 122.316C178.059 122.316 178.899 122.94 179.283 123.624V122.424H180.387V129H179.283V127.776C178.887 128.484 178.035 129.108 176.823 129.108C175.071 129.108 173.715 127.728 173.715 125.688ZM179.283 125.7C179.283 124.176 178.251 123.264 177.051 123.264C175.851 123.264 174.831 124.14 174.831 125.688C174.831 127.236 175.851 128.148 177.051 128.148C178.251 128.148 179.283 127.248 179.283 125.7ZM183.325 125.424V129H182.233V122.424H183.325V123.492C183.697 122.76 184.405 122.304 185.449 122.304V123.432H185.161C184.117 123.432 183.325 123.9 183.325 125.424ZM186.301 125.688C186.301 123.636 187.657 122.316 189.421 122.316C190.645 122.316 191.485 122.94 191.869 123.624V122.424H192.973V129H191.869V127.776C191.473 128.484 190.621 129.108 189.409 129.108C187.657 129.108 186.301 127.728 186.301 125.688ZM191.869 125.7C191.869 124.176 190.837 123.264 189.637 123.264C188.437 123.264 187.417 124.14 187.417 125.688C187.417 127.236 188.437 128.148 189.637 128.148C190.837 128.148 191.869 127.248 191.869 125.7ZM61.016 137.636C61.412 136.94 62.276 136.316 63.476 136.316C65.24 136.316 66.596 137.636 66.596 139.688C66.596 141.728 65.24 143.108 63.476 143.108C62.276 143.108 61.424 142.46 61.016 141.788V146.12H59.924V136.424H61.016V137.636ZM65.48 139.688C65.48 138.14 64.46 137.264 63.248 137.264C62.06 137.264 61.016 138.176 61.016 139.7C61.016 141.248 62.06 142.148 63.248 142.148C64.46 142.148 65.48 141.236 65.48 139.688ZM67.6254 139.688C67.6254 137.636 68.9814 136.316 70.7454 136.316C71.9694 136.316 72.8094 136.94 73.1934 137.624V136.424H74.2974V143H73.1934V141.776C72.7974 142.484 71.9454 143.108 70.7334 143.108C68.9814 143.108 67.6254 141.728 67.6254 139.688ZM73.1934 139.7C73.1934 138.176 72.1614 137.264 70.9614 137.264C69.7614 137.264 68.7414 138.14 68.7414 139.688C68.7414 141.236 69.7614 142.148 70.9614 142.148C72.1614 142.148 73.1934 141.248 73.1934 139.7ZM77.2348 139.424V143H76.1428V136.424H77.2348V137.492C77.6068 136.76 78.3148 136.304 79.3588 136.304V137.432H79.0708C78.0268 137.432 77.2348 137.9 77.2348 139.424ZM80.2113 139.688C80.2113 137.636 81.5673 136.316 83.3313 136.316C84.5553 136.316 85.3953 136.94 85.7793 137.624V136.424H86.8833V143H85.7793V141.776C85.3833 142.484 84.5313 143.108 83.3193 143.108C81.5673 143.108 80.2113 141.728 80.2113 139.688ZM85.7793 139.7C85.7793 138.176 84.7473 137.264 83.5473 137.264C82.3473 137.264 81.3273 138.14 81.3273 139.688C81.3273 141.236 82.3473 142.148 83.5473 142.148C84.7473 142.148 85.7793 141.248 85.7793 139.7ZM91.5199 139.7C91.5199 137.636 92.8519 136.316 94.7239 136.316C96.3559 136.316 97.4239 137.156 97.7599 138.536H96.5839C96.3559 137.744 95.6959 137.24 94.7239 137.24C93.5239 137.24 92.6359 138.092 92.6359 139.7C92.6359 141.332 93.5239 142.184 94.7239 142.184C95.6959 142.184 96.3439 141.716 96.5839 140.888H97.7599C97.4239 142.196 96.3559 143.108 94.7239 143.108C92.8519 143.108 91.5199 141.788 91.5199 139.7ZM105.457 139.7C105.457 141.788 103.957 143.108 102.085 143.108C100.225 143.108 98.809 141.788 98.809 139.7C98.809 137.624 100.273 136.316 102.133 136.316C104.005 136.316 105.457 137.624 105.457 139.7ZM99.925 139.7C99.925 141.368 100.945 142.148 102.085 142.148C103.225 142.148 104.341 141.368 104.341 139.7C104.341 138.044 103.249 137.264 102.121 137.264C100.969 137.264 99.925 138.044 99.925 139.7ZM111.705 143V139.28C111.705 137.936 110.973 137.252 109.869 137.252C108.753 137.252 107.985 137.948 107.985 139.364V143H106.893V136.424H107.985V137.36C108.417 136.676 109.209 136.304 110.097 136.304C111.621 136.304 112.785 137.24 112.785 139.124V143H111.705ZM114.809 141.2V137.324H113.957V136.424H114.809V134.768H115.901V136.424H117.617V137.324H115.901V141.2C115.901 141.848 116.141 142.076 116.813 142.076H117.617V143H116.633C115.469 143 114.809 142.52 114.809 141.2ZM118.94 143V136.424H120.032V143H118.94ZM119.504 135.356C119.084 135.356 118.76 135.032 118.76 134.612C118.76 134.192 119.084 133.868 119.504 133.868C119.9 133.868 120.224 134.192 120.224 134.612C120.224 135.032 119.9 135.356 119.504 135.356ZM126.705 143V139.28C126.705 137.936 125.973 137.252 124.869 137.252C123.753 137.252 122.985 137.948 122.985 139.364V143H121.893V136.424H122.985V137.36C123.417 136.676 124.209 136.304 125.097 136.304C126.621 136.304 127.785 137.24 127.785 139.124V143H126.705ZM135.401 136.424V143H134.309V142.028C133.889 142.712 133.085 143.096 132.209 143.096C130.697 143.096 129.509 142.16 129.509 140.276V136.424H130.589V140.132C130.589 141.464 131.321 142.148 132.425 142.148C133.553 142.148 134.309 141.452 134.309 140.036V136.424H135.401ZM136.836 139.688C136.836 137.636 138.192 136.316 139.956 136.316C141.18 136.316 142.02 136.94 142.404 137.624V136.424H143.508V143H142.404V141.776C142.008 142.484 141.156 143.108 139.944 143.108C138.192 143.108 136.836 141.728 136.836 139.688ZM142.404 139.7C142.404 138.176 141.372 137.264 140.172 137.264C138.972 137.264 137.952 138.14 137.952 139.688C137.952 141.236 138.972 142.148 140.172 142.148C141.372 142.148 142.404 141.248 142.404 139.7ZM146.446 139.424V143H145.354V136.424H146.446V137.492C146.818 136.76 147.526 136.304 148.57 136.304V137.432H148.282C147.238 137.432 146.446 137.9 146.446 139.424ZM150.898 142.328C150.898 142.748 150.574 143.072 150.178 143.072C149.758 143.072 149.434 142.748 149.434 142.328C149.434 141.908 149.758 141.584 150.178 141.584C150.574 141.584 150.898 141.908 150.898 142.328Z" fill="#343674"/>
</svg>
