<svg width="245" height="51" viewBox="0 0 245 51" fill="none" xmlns="http://www.w3.org/2000/svg">
<path d="M0.818945 36V0.999998H7.21895V31H22.7189V36H0.818945ZM29.658 7.35C28.4913 7.35 27.5247 7 26.758 6.3C26.0247 5.6 25.658 4.71667 25.658 3.65C25.658 2.58333 26.0247 1.71666 26.758 1.05C27.5247 0.349998 28.4913 -1.43051e-06 29.658 -1.43051e-06C30.8247 -1.43051e-06 31.7747 0.349998 32.508 1.05C33.2747 1.71666 33.658 2.58333 33.658 3.65C33.658 4.71667 33.2747 5.6 32.508 6.3C31.7747 7 30.8247 7.35 29.658 7.35ZM26.458 36V11.2H32.858V36H26.458ZM37.5381 36V11.2H43.1881L43.7381 14.55C44.5381 13.35 45.5881 12.4 46.8881 11.7C48.2214 10.9667 49.7548 10.6 51.4881 10.6C55.3214 10.6 58.0381 12.0833 59.6381 15.05C60.5381 13.6833 61.7381 12.6 63.2381 11.8C64.7714 11 66.4381 10.6 68.2381 10.6C71.4714 10.6 73.9548 11.5667 75.6881 13.5C77.4214 15.4333 78.2881 18.2667 78.2881 22V36H71.8881V22.6C71.8881 20.4667 71.4714 18.8333 70.6381 17.7C69.8381 16.5667 68.5881 16 66.8881 16C65.1548 16 63.7548 16.6333 62.6881 17.9C61.6548 19.1667 61.1381 20.9333 61.1381 23.2V36H54.7381V22.6C54.7381 20.4667 54.3214 18.8333 53.4881 17.7C52.6548 16.5667 51.3714 16 49.6381 16C47.9381 16 46.5548 16.6333 45.4881 17.9C44.4548 19.1667 43.9381 20.9333 43.9381 23.2V36H37.5381ZM97.0643 36.6C95.1976 36.6 93.5643 36.25 92.1643 35.55C90.7643 34.85 89.6309 33.8667 88.7643 32.6L88.0643 36H82.3643V-1.43051e-06H88.7643V14.75C89.5643 13.65 90.6143 12.6833 91.9143 11.85C93.2476 11.0167 94.9643 10.6 97.0643 10.6C99.3976 10.6 101.481 11.1667 103.314 12.3C105.148 13.4333 106.598 14.9833 107.664 16.95C108.731 18.9167 109.264 21.15 109.264 23.65C109.264 26.15 108.731 28.3833 107.664 30.35C106.598 32.2833 105.148 33.8167 103.314 34.95C101.481 36.05 99.3976 36.6 97.0643 36.6ZM95.7143 31C97.7476 31 99.4309 30.3167 100.764 28.95C102.098 27.5833 102.764 25.8167 102.764 23.65C102.764 21.4833 102.098 19.7 100.764 18.3C99.4309 16.9 97.7476 16.2 95.7143 16.2C93.6476 16.2 91.9476 16.9 90.6143 18.3C89.3143 19.6667 88.6643 21.4333 88.6643 23.6C88.6643 25.7667 89.3143 27.55 90.6143 28.95C91.9476 30.3167 93.6476 31 95.7143 31ZM124.881 36.6C122.481 36.6 120.315 36.05 118.381 34.95C116.481 33.85 114.965 32.3333 113.831 30.4C112.731 28.4333 112.181 26.1667 112.181 23.6C112.181 21.0333 112.748 18.7833 113.881 16.85C115.015 14.8833 116.531 13.35 118.431 12.25C120.365 11.15 122.531 10.6 124.931 10.6C127.298 10.6 129.431 11.15 131.331 12.25C133.265 13.35 134.781 14.8833 135.881 16.85C137.015 18.7833 137.581 21.0333 137.581 23.6C137.581 26.1667 137.015 28.4333 135.881 30.4C134.781 32.3333 133.265 33.85 131.331 34.95C129.398 36.05 127.248 36.6 124.881 36.6ZM124.881 31.05C126.548 31.05 127.998 30.4333 129.231 29.2C130.465 27.9333 131.081 26.0667 131.081 23.6C131.081 21.1333 130.465 19.2833 129.231 18.05C127.998 16.7833 126.565 16.15 124.931 16.15C123.231 16.15 121.765 16.7833 120.531 18.05C119.331 19.2833 118.731 21.1333 118.731 23.6C118.731 26.0667 119.331 27.9333 120.531 29.2C121.765 30.4333 123.215 31.05 124.881 31.05ZM151.554 36.6C149.354 36.6 147.42 36.25 145.754 35.55C144.087 34.8167 142.754 33.8167 141.754 32.55C140.754 31.2833 140.154 29.8167 139.954 28.15H146.404C146.604 29.1167 147.137 29.95 148.004 30.65C148.904 31.3167 150.054 31.65 151.454 31.65C152.854 31.65 153.87 31.3667 154.504 30.8C155.17 30.2333 155.504 29.5833 155.504 28.85C155.504 27.7833 155.037 27.0667 154.104 26.7C153.17 26.3 151.87 25.9167 150.204 25.55C149.137 25.3167 148.054 25.0333 146.954 24.7C145.854 24.3667 144.837 23.95 143.904 23.45C143.004 22.9167 142.27 22.25 141.704 21.45C141.137 20.6167 140.854 19.6 140.854 18.4C140.854 16.2 141.72 14.35 143.454 12.85C145.22 11.35 147.687 10.6 150.854 10.6C153.787 10.6 156.12 11.2833 157.854 12.65C159.62 14.0167 160.67 15.9 161.004 18.3H154.954C154.587 16.4667 153.204 15.55 150.804 15.55C149.604 15.55 148.67 15.7833 148.004 16.25C147.37 16.7167 147.054 17.3 147.054 18C147.054 18.7333 147.537 19.3167 148.504 19.75C149.47 20.1833 150.754 20.5833 152.354 20.95C154.087 21.35 155.67 21.8 157.104 22.3C158.57 22.7667 159.737 23.4833 160.604 24.45C161.47 25.3833 161.904 26.7333 161.904 28.5C161.937 30.0333 161.537 31.4167 160.704 32.65C159.87 33.8833 158.67 34.85 157.104 35.55C155.537 36.25 153.687 36.6 151.554 36.6ZM177.723 36.6C175.19 36.6 172.957 36.05 171.023 34.95C169.09 33.85 167.557 32.3167 166.423 30.35C165.323 28.3833 164.773 26.1333 164.773 23.6C164.773 21.0667 165.323 18.8167 166.423 16.85C167.557 14.8833 169.09 13.35 171.023 12.25C172.957 11.15 175.19 10.6 177.723 10.6C180.89 10.6 183.557 11.4333 185.723 13.1C187.89 14.7333 189.273 17 189.873 19.9H183.123C182.79 18.7 182.123 17.7667 181.123 17.1C180.157 16.4 179.007 16.05 177.673 16.05C175.907 16.05 174.407 16.7167 173.173 18.05C171.94 19.3833 171.323 21.2333 171.323 23.6C171.323 25.9667 171.94 27.8167 173.173 29.15C174.407 30.4833 175.907 31.15 177.673 31.15C179.007 31.15 180.157 30.8167 181.123 30.15C182.123 29.4833 182.79 28.5333 183.123 27.3H189.873C189.273 30.1 187.89 32.35 185.723 34.05C183.557 35.75 180.89 36.6 177.723 36.6ZM202.104 36.6C199.97 36.6 198.22 36.2667 196.854 35.6C195.487 34.9 194.47 33.9833 193.804 32.85C193.137 31.7167 192.804 30.4667 192.804 29.1C192.804 26.8 193.704 24.9333 195.504 23.5C197.304 22.0667 200.004 21.35 203.604 21.35H209.904V20.75C209.904 19.05 209.42 17.8 208.454 17C207.487 16.2 206.287 15.8 204.854 15.8C203.554 15.8 202.42 16.1167 201.454 16.75C200.487 17.35 199.887 18.25 199.654 19.45H193.404C193.57 17.65 194.17 16.0833 195.204 14.75C196.27 13.4167 197.637 12.4 199.304 11.7C200.97 10.9667 202.837 10.6 204.904 10.6C208.437 10.6 211.22 11.4833 213.254 13.25C215.287 15.0167 216.304 17.5167 216.304 20.75V36H210.854L210.254 32C209.52 33.3333 208.487 34.4333 207.154 35.3C205.854 36.1667 204.17 36.6 202.104 36.6ZM203.554 31.6C205.387 31.6 206.804 31 207.804 29.8C208.837 28.6 209.487 27.1167 209.754 25.35H204.304C202.604 25.35 201.387 25.6667 200.654 26.3C199.92 26.9 199.554 27.65 199.554 28.55C199.554 29.5167 199.92 30.2667 200.654 30.8C201.387 31.3333 202.354 31.6 203.554 31.6ZM220.411 36V11.2H226.061L226.561 15.4C227.328 13.9333 228.428 12.7667 229.861 11.9C231.328 11.0333 233.044 10.6 235.011 10.6C238.078 10.6 240.461 11.5667 242.161 13.5C243.861 15.4333 244.711 18.2667 244.711 22V36H238.311V22.6C238.311 20.4667 237.878 18.8333 237.011 17.7C236.144 16.5667 234.794 16 232.961 16C231.161 16 229.678 16.6333 228.511 17.9C227.378 19.1667 226.811 20.9333 226.811 23.2V36H220.411Z" fill="url(#paint0_linear_0_1)"/>
<path d="M0.818945 50V15H7.21895V45H22.7189V50H0.818945ZM29.658 21.35C28.4913 21.35 27.5247 21 26.758 20.3C26.0247 19.6 25.658 18.7167 25.658 17.65C25.658 16.5833 26.0247 15.7167 26.758 15.05C27.5247 14.35 28.4913 14 29.658 14C30.8247 14 31.7747 14.35 32.508 15.05C33.2747 15.7167 33.658 16.5833 33.658 17.65C33.658 18.7167 33.2747 19.6 32.508 20.3C31.7747 21 30.8247 21.35 29.658 21.35ZM26.458 50V25.2H32.858V50H26.458ZM37.5381 50V25.2H43.1881L43.7381 28.55C44.5381 27.35 45.5881 26.4 46.8881 25.7C48.2214 24.9667 49.7548 24.6 51.4881 24.6C55.3214 24.6 58.0381 26.0833 59.6381 29.05C60.5381 27.6833 61.7381 26.6 63.2381 25.8C64.7714 25 66.4381 24.6 68.2381 24.6C71.4714 24.6 73.9548 25.5667 75.6881 27.5C77.4214 29.4333 78.2881 32.2667 78.2881 36V50H71.8881V36.6C71.8881 34.4667 71.4714 32.8333 70.6381 31.7C69.8381 30.5667 68.5881 30 66.8881 30C65.1548 30 63.7548 30.6333 62.6881 31.9C61.6548 33.1667 61.1381 34.9333 61.1381 37.2V50H54.7381V36.6C54.7381 34.4667 54.3214 32.8333 53.4881 31.7C52.6548 30.5667 51.3714 30 49.6381 30C47.9381 30 46.5548 30.6333 45.4881 31.9C44.4548 33.1667 43.9381 34.9333 43.9381 37.2V50H37.5381ZM97.0643 50.6C95.1976 50.6 93.5643 50.25 92.1643 49.55C90.7643 48.85 89.6309 47.8667 88.7643 46.6L88.0643 50H82.3643V14H88.7643V28.75C89.5643 27.65 90.6143 26.6833 91.9143 25.85C93.2476 25.0167 94.9643 24.6 97.0643 24.6C99.3976 24.6 101.481 25.1667 103.314 26.3C105.148 27.4333 106.598 28.9833 107.664 30.95C108.731 32.9167 109.264 35.15 109.264 37.65C109.264 40.15 108.731 42.3833 107.664 44.35C106.598 46.2833 105.148 47.8167 103.314 48.95C101.481 50.05 99.3976 50.6 97.0643 50.6ZM95.7143 45C97.7476 45 99.4309 44.3167 100.764 42.95C102.098 41.5833 102.764 39.8167 102.764 37.65C102.764 35.4833 102.098 33.7 100.764 32.3C99.4309 30.9 97.7476 30.2 95.7143 30.2C93.6476 30.2 91.9476 30.9 90.6143 32.3C89.3143 33.6667 88.6643 35.4333 88.6643 37.6C88.6643 39.7667 89.3143 41.55 90.6143 42.95C91.9476 44.3167 93.6476 45 95.7143 45ZM124.881 50.6C122.481 50.6 120.315 50.05 118.381 48.95C116.481 47.85 114.965 46.3333 113.831 44.4C112.731 42.4333 112.181 40.1667 112.181 37.6C112.181 35.0333 112.748 32.7833 113.881 30.85C115.015 28.8833 116.531 27.35 118.431 26.25C120.365 25.15 122.531 24.6 124.931 24.6C127.298 24.6 129.431 25.15 131.331 26.25C133.265 27.35 134.781 28.8833 135.881 30.85C137.015 32.7833 137.581 35.0333 137.581 37.6C137.581 40.1667 137.015 42.4333 135.881 44.4C134.781 46.3333 133.265 47.85 131.331 48.95C129.398 50.05 127.248 50.6 124.881 50.6ZM124.881 45.05C126.548 45.05 127.998 44.4333 129.231 43.2C130.465 41.9333 131.081 40.0667 131.081 37.6C131.081 35.1333 130.465 33.2833 129.231 32.05C127.998 30.7833 126.565 30.15 124.931 30.15C123.231 30.15 121.765 30.7833 120.531 32.05C119.331 33.2833 118.731 35.1333 118.731 37.6C118.731 40.0667 119.331 41.9333 120.531 43.2C121.765 44.4333 123.215 45.05 124.881 45.05ZM151.554 50.6C149.354 50.6 147.42 50.25 145.754 49.55C144.087 48.8167 142.754 47.8167 141.754 46.55C140.754 45.2833 140.154 43.8167 139.954 42.15H146.404C146.604 43.1167 147.137 43.95 148.004 44.65C148.904 45.3167 150.054 45.65 151.454 45.65C152.854 45.65 153.87 45.3667 154.504 44.8C155.17 44.2333 155.504 43.5833 155.504 42.85C155.504 41.7833 155.037 41.0667 154.104 40.7C153.17 40.3 151.87 39.9167 150.204 39.55C149.137 39.3167 148.054 39.0333 146.954 38.7C145.854 38.3667 144.837 37.95 143.904 37.45C143.004 36.9167 142.27 36.25 141.704 35.45C141.137 34.6167 140.854 33.6 140.854 32.4C140.854 30.2 141.72 28.35 143.454 26.85C145.22 25.35 147.687 24.6 150.854 24.6C153.787 24.6 156.12 25.2833 157.854 26.65C159.62 28.0167 160.67 29.9 161.004 32.3H154.954C154.587 30.4667 153.204 29.55 150.804 29.55C149.604 29.55 148.67 29.7833 148.004 30.25C147.37 30.7167 147.054 31.3 147.054 32C147.054 32.7333 147.537 33.3167 148.504 33.75C149.47 34.1833 150.754 34.5833 152.354 34.95C154.087 35.35 155.67 35.8 157.104 36.3C158.57 36.7667 159.737 37.4833 160.604 38.45C161.47 39.3833 161.904 40.7333 161.904 42.5C161.937 44.0333 161.537 45.4167 160.704 46.65C159.87 47.8833 158.67 48.85 157.104 49.55C155.537 50.25 153.687 50.6 151.554 50.6ZM177.723 50.6C175.19 50.6 172.957 50.05 171.023 48.95C169.09 47.85 167.557 46.3167 166.423 44.35C165.323 42.3833 164.773 40.1333 164.773 37.6C164.773 35.0667 165.323 32.8167 166.423 30.85C167.557 28.8833 169.09 27.35 171.023 26.25C172.957 25.15 175.19 24.6 177.723 24.6C180.89 24.6 183.557 25.4333 185.723 27.1C187.89 28.7333 189.273 31 189.873 33.9H183.123C182.79 32.7 182.123 31.7667 181.123 31.1C180.157 30.4 179.007 30.05 177.673 30.05C175.907 30.05 174.407 30.7167 173.173 32.05C171.94 33.3833 171.323 35.2333 171.323 37.6C171.323 39.9667 171.94 41.8167 173.173 43.15C174.407 44.4833 175.907 45.15 177.673 45.15C179.007 45.15 180.157 44.8167 181.123 44.15C182.123 43.4833 182.79 42.5333 183.123 41.3H189.873C189.273 44.1 187.89 46.35 185.723 48.05C183.557 49.75 180.89 50.6 177.723 50.6ZM202.104 50.6C199.97 50.6 198.22 50.2667 196.854 49.6C195.487 48.9 194.47 47.9833 193.804 46.85C193.137 45.7167 192.804 44.4667 192.804 43.1C192.804 40.8 193.704 38.9333 195.504 37.5C197.304 36.0667 200.004 35.35 203.604 35.35H209.904V34.75C209.904 33.05 209.42 31.8 208.454 31C207.487 30.2 206.287 29.8 204.854 29.8C203.554 29.8 202.42 30.1167 201.454 30.75C200.487 31.35 199.887 32.25 199.654 33.45H193.404C193.57 31.65 194.17 30.0833 195.204 28.75C196.27 27.4167 197.637 26.4 199.304 25.7C200.97 24.9667 202.837 24.6 204.904 24.6C208.437 24.6 211.22 25.4833 213.254 27.25C215.287 29.0167 216.304 31.5167 216.304 34.75V50H210.854L210.254 46C209.52 47.3333 208.487 48.4333 207.154 49.3C205.854 50.1667 204.17 50.6 202.104 50.6ZM203.554 45.6C205.387 45.6 206.804 45 207.804 43.8C208.837 42.6 209.487 41.1167 209.754 39.35H204.304C202.604 39.35 201.387 39.6667 200.654 40.3C199.92 40.9 199.554 41.65 199.554 42.55C199.554 43.5167 199.92 44.2667 200.654 44.8C201.387 45.3333 202.354 45.6 203.554 45.6ZM220.411 50V25.2H226.061L226.561 29.4C227.328 27.9333 228.428 26.7667 229.861 25.9C231.328 25.0333 233.044 24.6 235.011 24.6C238.078 24.6 240.461 25.5667 242.161 27.5C243.861 29.4333 244.711 32.2667 244.711 36V50H238.311V36.6C238.311 34.4667 237.878 32.8333 237.011 31.7C236.144 30.5667 234.794 30 232.961 30C231.161 30 229.678 30.6333 228.511 31.9C227.378 33.1667 226.811 34.9333 226.811 37.2V50H220.411Z" fill="white"/>
<defs>
<linearGradient id="paint0_linear_0_1" x1="122.5" y1="-14" x2="122.5" y2="51" gradientUnits="userSpaceOnUse">
<stop stop-color="white"/>
<stop offset="1" stop-opacity="0"/>
</linearGradient>
</defs>
</svg>
