<svg width="66" height="66" viewBox="0 0 66 66" fill="none" xmlns="http://www.w3.org/2000/svg">
<rect width="66" height="66" rx="10" fill="#343674"/>
<mask id="mask0_2_1925" style="mask-type:alpha" maskUnits="userSpaceOnUse" x="10" y="9" width="48" height="48">
<rect x="10" y="9" width="48" height="48" fill="white"/>
</mask>
<g mask="url(#mask0_2_1925)">
<path d="M16 51C14.9 51 13.9583 50.6083 13.175 49.825C12.3917 49.0417 12 48.1 12 47V23C12 21.9 12.3917 20.9583 13.175 20.175C13.9583 19.3917 14.9 19 16 19H22.3L26 15H38V19H27.75L24.1 23H16V47H48V29H52V47C52 48.1 51.6083 49.0417 50.825 49.825C50.0417 50.6083 49.1 51 48 51H16ZM48 23V19H44V15H48V11H52V15H56V19H52V23H48ZM32 44C34.5 44 36.625 43.125 38.375 41.375C40.125 39.625 41 37.5 41 35C41 32.5 40.125 30.375 38.375 28.625C36.625 26.875 34.5 26 32 26C29.5 26 27.375 26.875 25.625 28.625C23.875 30.375 23 32.5 23 35C23 37.5 23.875 39.625 25.625 41.375C27.375 43.125 29.5 44 32 44ZM32 40C30.6 40 29.4167 39.5167 28.45 38.55C27.4833 37.5833 27 36.4 27 35C27 33.6 27.4833 32.4167 28.45 31.45C29.4167 30.4833 30.6 30 32 30C33.4 30 34.5833 30.4833 35.55 31.45C36.5167 32.4167 37 33.6 37 35C37 36.4 36.5167 37.5833 35.55 38.55C34.5833 39.5167 33.4 40 32 40Z" fill="white"/>
</g>
</svg>
