<svg width="26" height="26" viewBox="0 0 26 26" fill="none" xmlns="http://www.w3.org/2000/svg">
<rect width="26" height="26" rx="4" fill="#343674"/>
<path d="M11.2353 17.2C10.8471 17.2 10.5147 17.0629 10.2382 16.7887C9.96176 16.5146 9.82353 16.185 9.82353 15.8V7.4C9.82353 7.015 9.96176 6.68542 10.2382 6.41125C10.5147 6.13708 10.8471 6 11.2353 6H17.5882C17.9765 6 18.3088 6.13708 18.5853 6.41125C18.8618 6.68542 19 7.015 19 7.4V15.8C19 16.185 18.8618 16.5146 18.5853 16.7887C18.3088 17.0629 17.9765 17.2 17.5882 17.2H11.2353ZM11.2353 15.8H17.5882V7.4H11.2353V15.8ZM8.41176 20C8.02353 20 7.69118 19.8629 7.41471 19.5887C7.13824 19.3146 7 18.985 7 18.6V8.8H8.41176V18.6H16.1765V20H8.41176Z" fill="#FBFBFB"/>
</svg>
