<svg width="28" height="28" viewBox="0 0 28 28" fill="none" xmlns="http://www.w3.org/2000/svg">
<rect x="1" y="1" width="26" height="26" rx="13" fill="#A3A4C0" stroke="#343674"/>
<mask id="mask0_10_419" style="mask-type:alpha" maskUnits="userSpaceOnUse" x="5" y="6" width="16" height="16">
<rect x="5" y="6" width="16" height="16" fill="#D9D9D9"/>
</mask>
<g mask="url(#mask0_10_419)">
<path d="M5.66663 14V10.6667H6.66663V12.3L8.64996 10.3167L9.34996 11.0167L7.36663 13H8.99996V14H5.66663ZM10.0166 10.35L9.31663 9.65001L11.3 7.66667H9.66663V6.66667H13V10H12V8.36667L10.0166 10.35ZM14.8833 21.3333C14.6166 21.3333 14.3611 21.2833 14.1166 21.1833C13.8722 21.0833 13.6555 20.9389 13.4666 20.75L10.0666 17.3333L10.5666 16.8167C10.7444 16.6389 10.9527 16.5195 11.1916 16.4583C11.4305 16.3972 11.6666 16.4 11.9 16.4667L13 16.7833V11.3333C13 11.1444 13.0638 10.9861 13.1916 10.8583C13.3194 10.7306 13.4777 10.6667 13.6666 10.6667C13.8555 10.6667 14.0138 10.7306 14.1416 10.8583C14.2694 10.9861 14.3333 11.1444 14.3333 11.3333V18.55L12.7166 18.1L14.4166 19.8C14.4722 19.8556 14.5416 19.9028 14.625 19.9417C14.7083 19.9806 14.7944 20 14.8833 20H17.6666C18.0333 20 18.3472 19.8695 18.6083 19.6083C18.8694 19.3472 19 19.0333 19 18.6667V16C19 15.8111 19.0638 15.6528 19.1916 15.525C19.3194 15.3972 19.4777 15.3333 19.6666 15.3333C19.8555 15.3333 20.0138 15.3972 20.1416 15.525C20.2694 15.6528 20.3333 15.8111 20.3333 16V18.6667C20.3333 19.4 20.0722 20.0278 19.55 20.55C19.0277 21.0722 18.4 21.3333 17.6666 21.3333H14.8833ZM15 16.6667V14C15 13.8111 15.0638 13.6528 15.1916 13.525C15.3194 13.3972 15.4777 13.3333 15.6666 13.3333C15.8555 13.3333 16.0138 13.3972 16.1416 13.525C16.2694 13.6528 16.3333 13.8111 16.3333 14V16.6667H15ZM17 16.6667V14.6667C17 14.4778 17.0638 14.3194 17.1916 14.1917C17.3194 14.0639 17.4777 14 17.6666 14C17.8555 14 18.0138 14.0639 18.1416 14.1917C18.2694 14.3194 18.3333 14.4778 18.3333 14.6667V16.6667H17Z" fill="#343674"/>
</g>
</svg>
