<svg width="26" height="26" viewBox="0 0 26 26" fill="none" xmlns="http://www.w3.org/2000/svg">
<rect width="26" height="26" rx="4" fill="#FFD37D"/>
<path d="M17 19.6667C16.4444 19.6667 15.9722 19.4722 15.5833 19.0833C15.1944 18.6945 15 18.2222 15 17.6667C15 17.5889 15.0056 17.5083 15.0167 17.425C15.0278 17.3417 15.0444 17.2667 15.0667 17.2L10.3667 14.4667C10.1778 14.6333 9.96667 14.7639 9.73333 14.8583C9.5 14.9528 9.25556 15 9 15C8.44444 15 7.97222 14.8056 7.58333 14.4167C7.19444 14.0278 7 13.5556 7 13C7 12.4445 7.19444 11.9722 7.58333 11.5833C7.97222 11.1945 8.44444 11 9 11C9.25556 11 9.5 11.0472 9.73333 11.1417C9.96667 11.2361 10.1778 11.3667 10.3667 11.5333L15.0667 8.80001C15.0444 8.73334 15.0278 8.65834 15.0167 8.57501C15.0056 8.49168 15 8.41112 15 8.33334C15 7.77779 15.1944 7.30557 15.5833 6.91668C15.9722 6.52779 16.4444 6.33334 17 6.33334C17.5556 6.33334 18.0278 6.52779 18.4167 6.91668C18.8056 7.30557 19 7.77779 19 8.33334C19 8.8889 18.8056 9.36112 18.4167 9.75001C18.0278 10.1389 17.5556 10.3333 17 10.3333C16.7444 10.3333 16.5 10.2861 16.2667 10.1917C16.0333 10.0972 15.8222 9.96668 15.6333 9.80001L10.9333 12.5333C10.9556 12.6 10.9722 12.675 10.9833 12.7583C10.9944 12.8417 11 12.9222 11 13C11 13.0778 10.9944 13.1583 10.9833 13.2417C10.9722 13.325 10.9556 13.4 10.9333 13.4667L15.6333 16.2C15.8222 16.0333 16.0333 15.9028 16.2667 15.8083C16.5 15.7139 16.7444 15.6667 17 15.6667C17.5556 15.6667 18.0278 15.8611 18.4167 16.25C18.8056 16.6389 19 17.1111 19 17.6667C19 18.2222 18.8056 18.6945 18.4167 19.0833C18.0278 19.4722 17.5556 19.6667 17 19.6667ZM17 9.00001C17.1889 9.00001 17.3472 8.93612 17.475 8.80834C17.6028 8.68057 17.6667 8.52223 17.6667 8.33334C17.6667 8.14445 17.6028 7.98612 17.475 7.85834C17.3472 7.73057 17.1889 7.66668 17 7.66668C16.8111 7.66668 16.6528 7.73057 16.525 7.85834C16.3972 7.98612 16.3333 8.14445 16.3333 8.33334C16.3333 8.52223 16.3972 8.68057 16.525 8.80834C16.6528 8.93612 16.8111 9.00001 17 9.00001ZM9 13.6667C9.18889 13.6667 9.34722 13.6028 9.475 13.475C9.60278 13.3472 9.66667 13.1889 9.66667 13C9.66667 12.8111 9.60278 12.6528 9.475 12.525C9.34722 12.3972 9.18889 12.3333 9 12.3333C8.81111 12.3333 8.65278 12.3972 8.525 12.525C8.39722 12.6528 8.33333 12.8111 8.33333 13C8.33333 13.1889 8.39722 13.3472 8.525 13.475C8.65278 13.6028 8.81111 13.6667 9 13.6667ZM17 18.3333C17.1889 18.3333 17.3472 18.2695 17.475 18.1417C17.6028 18.0139 17.6667 17.8556 17.6667 17.6667C17.6667 17.4778 17.6028 17.3195 17.475 17.1917C17.3472 17.0639 17.1889 17 17 17C16.8111 17 16.6528 17.0639 16.525 17.1917C16.3972 17.3195 16.3333 17.4778 16.3333 17.6667C16.3333 17.8556 16.3972 18.0139 16.525 18.1417C16.6528 18.2695 16.8111 18.3333 17 18.3333Z" fill="#342D39"/>
</svg>
